<svg xmlns="http://www.w3.org/2000/svg" xmlns:xlink="http://www.w3.org/1999/xlink" width="1080" zoomAndPan="magnify" viewBox="0 0 810 809.999993" height="1080" preserveAspectRatio="xMidYMid meet" version="1.0"><defs><clipPath id="7ba6dbd9b9"><path d="M 263.859375 243 L 545.859375 243 L 545.859375 567 L 263.859375 567 Z M 263.859375 243 " clip-rule="nonzero"/></clipPath><clipPath id="a8e030a276"><path d="M 429.898438 451.855469 L 546.898438 451.855469 L 546.898438 568.855469 L 429.898438 568.855469 Z M 429.898438 451.855469 " clip-rule="nonzero"/></clipPath><clipPath id="f762bf45f6"><path d="M 429.898438 451.855469 L 546.898438 451.855469 L 546.898438 568.855469 L 429.898438 568.855469 Z M 429.898438 451.855469 " clip-rule="nonzero"/></clipPath><clipPath id="9a95c9e871"><path d="M 488.398438 451.855469 C 456.089844 451.855469 429.898438 478.046875 429.898438 510.355469 C 429.898438 542.664062 456.089844 568.855469 488.398438 568.855469 C 520.707031 568.855469 546.898438 542.664062 546.898438 510.355469 C 546.898438 478.046875 520.707031 451.855469 488.398438 451.855469 " clip-rule="nonzero"/></clipPath><clipPath id="3e530f05b7"><path d="M 459.238281 487.023438 L 517.738281 487.023438 L 517.738281 533.523438 L 459.238281 533.523438 Z M 459.238281 487.023438 " clip-rule="nonzero"/></clipPath></defs><g clip-path="url(#7ba6dbd9b9)"><path fill="#1c4670" d="M 339.664062 330.644531 L 309.949219 330.644531 C 307.15625 330.644531 304.894531 332.910156 304.894531 335.707031 L 304.894531 365.449219 C 304.894531 368.246094 307.15625 370.511719 309.949219 370.511719 L 339.664062 370.511719 C 342.457031 370.511719 344.722656 368.246094 344.722656 365.449219 L 344.722656 335.707031 C 344.722656 332.910156 342.457031 330.644531 339.664062 330.644531 Z M 334.605469 360.386719 L 315.007812 360.386719 L 315.007812 340.769531 L 334.605469 340.769531 Z M 367.480469 335.707031 C 367.480469 332.910156 369.746094 330.644531 372.539062 330.644531 L 448.082031 330.644531 C 450.875 330.644531 453.140625 332.910156 453.140625 335.707031 C 453.140625 338.503906 450.875 340.769531 448.082031 340.769531 L 372.539062 340.769531 C 369.746094 340.769531 367.480469 338.503906 367.480469 335.707031 Z M 367.480469 365.449219 C 367.480469 362.652344 369.746094 360.386719 372.539062 360.386719 L 448.082031 360.386719 C 450.875 360.386719 453.140625 362.652344 453.140625 365.449219 C 453.140625 368.246094 450.875 370.511719 448.082031 370.511719 L 372.539062 370.511719 C 369.746094 370.511719 367.480469 368.246094 367.480469 365.449219 Z M 339.664062 398.355469 L 309.949219 398.355469 C 307.15625 398.355469 304.894531 400.621094 304.894531 403.417969 L 304.894531 433.160156 C 304.894531 435.957031 307.15625 438.222656 309.949219 438.222656 L 339.664062 438.222656 C 342.457031 438.222656 344.722656 435.957031 344.722656 433.160156 L 344.722656 403.417969 C 344.722656 400.621094 342.457031 398.355469 339.664062 398.355469 Z M 334.605469 428.097656 L 315.007812 428.097656 L 315.007812 408.480469 L 334.605469 408.480469 Z M 367.480469 403.417969 C 367.480469 400.621094 369.746094 398.355469 372.539062 398.355469 L 448.082031 398.355469 C 450.875 398.355469 453.140625 400.621094 453.140625 403.417969 C 453.140625 406.214844 450.875 408.480469 448.082031 408.480469 L 372.539062 408.480469 C 369.746094 408.480469 367.480469 406.214844 367.480469 403.417969 Z M 367.480469 433.160156 C 367.480469 430.363281 369.746094 428.097656 372.539062 428.097656 L 448.082031 428.097656 C 450.875 428.097656 453.140625 430.363281 453.140625 433.160156 C 453.140625 435.957031 450.875 438.222656 448.082031 438.222656 L 372.539062 438.222656 C 369.746094 438.222656 367.480469 435.957031 367.480469 433.160156 Z M 339.664062 466.066406 L 309.949219 466.066406 C 307.15625 466.066406 304.894531 468.332031 304.894531 471.128906 L 304.894531 500.871094 C 304.894531 503.667969 307.15625 505.933594 309.949219 505.933594 L 339.664062 505.933594 C 342.457031 505.933594 344.722656 503.667969 344.722656 500.871094 L 344.722656 471.128906 C 344.722656 468.332031 342.457031 466.066406 339.664062 466.066406 Z M 334.605469 495.808594 L 315.007812 495.808594 L 315.007812 476.191406 L 334.605469 476.191406 Z M 421.5625 471.128906 C 421.5625 473.925781 419.296875 476.191406 416.503906 476.191406 L 372.539062 476.191406 C 369.746094 476.191406 367.480469 473.925781 367.480469 471.128906 C 367.480469 468.332031 369.746094 466.066406 372.539062 466.066406 L 416.503906 466.066406 C 419.296875 466.066406 421.5625 468.332031 421.5625 471.128906 Z M 421.5625 500.871094 C 421.5625 503.667969 419.296875 505.933594 416.503906 505.933594 L 372.539062 505.933594 C 369.746094 505.933594 367.480469 503.667969 367.480469 500.871094 C 367.480469 498.074219 369.746094 495.808594 372.539062 495.808594 L 416.503906 495.808594 C 419.296875 495.808594 421.5625 498.074219 421.5625 500.871094 Z M 519.375 489.195312 C 521.363281 491.160156 521.378906 494.367188 519.414062 496.355469 L 484.964844 531.179688 C 484.019531 532.136719 482.730469 532.675781 481.382812 532.679688 C 481.378906 532.679688 481.375 532.679688 481.371094 532.679688 C 480.03125 532.679688 478.746094 532.148438 477.796875 531.199219 L 458.640625 512.019531 C 456.664062 510.042969 456.664062 506.839844 458.640625 504.863281 C 460.613281 502.886719 463.816406 502.886719 465.789062 504.863281 L 481.351562 520.441406 L 512.226562 489.230469 C 514.191406 487.242188 517.390625 487.226562 519.375 489.195312 Z M 494.074219 453.636719 L 494.074219 293.625 C 494.074219 283.855469 486.132812 275.90625 476.375 275.90625 L 432.753906 275.90625 L 432.753906 264.515625 C 432.753906 261.71875 430.488281 259.453125 427.695312 259.453125 L 403.578125 259.453125 C 399.546875 249.59375 389.953125 243 379.015625 243 C 368.082031 243 358.484375 249.59375 354.457031 259.453125 L 330.339844 259.453125 C 327.546875 259.453125 325.28125 261.71875 325.28125 264.515625 L 325.28125 275.90625 L 281.660156 275.90625 C 271.902344 275.90625 263.960938 283.855469 263.960938 293.625 L 263.960938 526.5 C 263.960938 536.269531 271.902344 544.21875 281.660156 544.21875 L 443.605469 544.21875 C 453.964844 558.042969 470.464844 567 489.015625 567 C 520.300781 567 545.753906 541.523438 545.753906 510.203125 C 545.753906 480.59375 523 456.207031 494.074219 453.636719 Z M 335.398438 269.578125 L 358.121094 269.578125 C 360.460938 269.578125 362.492188 267.976562 363.039062 265.703125 C 364.824219 258.296875 371.394531 253.125 379.015625 253.125 C 386.640625 253.125 393.210938 258.296875 394.996094 265.703125 C 395.542969 267.976562 397.574219 269.578125 399.910156 269.578125 L 422.636719 269.578125 L 422.636719 292.359375 L 335.398438 292.359375 Z M 281.660156 534.09375 C 277.476562 534.09375 274.074219 530.6875 274.074219 526.5 L 274.074219 293.625 C 274.074219 289.4375 277.476562 286.03125 281.660156 286.03125 L 325.28125 286.03125 L 325.28125 297.421875 C 325.28125 300.21875 327.546875 302.484375 330.339844 302.484375 L 427.695312 302.484375 C 430.488281 302.484375 432.753906 300.21875 432.753906 297.421875 L 432.753906 286.03125 L 476.375 286.03125 C 480.554688 286.03125 483.960938 289.4375 483.960938 293.625 L 483.960938 453.636719 C 455.035156 456.207031 432.277344 480.59375 432.277344 510.203125 C 432.277344 518.734375 434.167969 526.828125 437.550781 534.09375 Z M 489.015625 556.875 C 463.308594 556.875 442.394531 535.9375 442.394531 510.203125 C 442.394531 484.472656 463.308594 463.535156 489.015625 463.535156 C 514.726562 463.535156 535.640625 484.472656 535.640625 510.203125 C 535.640625 535.9375 514.726562 556.875 489.015625 556.875 Z M 489.015625 556.875 " fill-opacity="1" fill-rule="nonzero"/></g><g clip-path="url(#a8e030a276)"><path fill="#ffffff" d="M 488.398438 451.855469 C 456.089844 451.855469 429.898438 478.046875 429.898438 510.355469 C 429.898438 542.664062 456.089844 568.855469 488.398438 568.855469 C 520.707031 568.855469 546.898438 542.664062 546.898438 510.355469 C 546.898438 478.046875 520.707031 451.855469 488.398438 451.855469 " fill-opacity="1" fill-rule="nonzero"/></g><g clip-path="url(#f762bf45f6)"><g clip-path="url(#9a95c9e871)"><path stroke-linecap="butt" transform="matrix(0.750075, 0, 0, 0.750075, 429.899574, 451.854837)" fill="none" stroke-linejoin="miter" d="M 77.990677 0.000841892 C 34.916864 0.000841892 -0.00151501 34.919221 -0.00151501 77.993034 C -0.00151501 121.066847 34.916864 155.985226 77.990677 155.985226 C 121.06449 155.985226 155.982869 121.066847 155.982869 77.993034 C 155.982869 34.919221 121.06449 0.000841892 77.990677 0.000841892 " stroke="#ffa229" stroke-width="24" stroke-opacity="1" stroke-miterlimit="4"/></g></g><g clip-path="url(#3e530f05b7)"><path fill="#ffa229" d="M 479.34375 533.328125 L 459.238281 513.351562 L 467.25 505.390625 L 479.34375 517.40625 L 509.726562 487.222656 L 517.738281 495.179688 Z M 479.34375 533.328125 " fill-opacity="1" fill-rule="nonzero"/></g></svg>