<svg xmlns="http://www.w3.org/2000/svg" xmlns:xlink="http://www.w3.org/1999/xlink" width="1080" zoomAndPan="magnify" viewBox="0 0 810 809.999993" height="1080" preserveAspectRatio="xMidYMid meet" version="1.0"><defs><clipPath id="29d3f53a32"><path d="M 231.550781 243.9375 L 578.800781 243.9375 L 578.800781 591.1875 L 231.550781 591.1875 Z M 231.550781 243.9375 " clip-rule="nonzero"/></clipPath><clipPath id="d6af136e87"><path d="M 231.550781 376.796875 L 410.800781 376.796875 L 410.800781 590.546875 L 231.550781 590.546875 Z M 231.550781 376.796875 " clip-rule="nonzero"/></clipPath><clipPath id="54699bc88d"><path d="M 405 388.550781 L 511.5 388.550781 L 511.5 399.800781 L 405 399.800781 Z M 405 388.550781 " clip-rule="nonzero"/></clipPath><clipPath id="e7efbb4a8b"><path d="M 405 411.707031 L 511.5 411.707031 L 511.5 422.957031 L 405 422.957031 Z M 405 411.707031 " clip-rule="nonzero"/></clipPath><clipPath id="567695156d"><path d="M 405 435.066406 L 511.5 435.066406 L 511.5 447.066406 L 405 447.066406 Z M 405 435.066406 " clip-rule="nonzero"/></clipPath><clipPath id="e5f7bd59ae"><path d="M 405 457.945312 L 511.5 457.945312 L 511.5 469.945312 L 405 469.945312 Z M 405 457.945312 " clip-rule="nonzero"/></clipPath><clipPath id="88089a0436"><path d="M 405 579.207031 L 511.5 579.207031 L 511.5 591.207031 L 405 591.207031 Z M 405 579.207031 " clip-rule="nonzero"/></clipPath></defs><g clip-path="url(#29d3f53a32)"><path fill="#1c4670" d="M 576.890625 303.316406 L 513.226562 245.441406 C 512.703125 244.953125 512.105469 244.578125 511.433594 244.316406 C 510.765625 244.058594 510.070312 243.929688 509.351562 243.9375 L 306.789062 243.9375 C 306.410156 243.9375 306.03125 243.976562 305.660156 244.050781 C 305.285156 244.125 304.925781 244.234375 304.574219 244.378906 C 304.222656 244.523438 303.890625 244.703125 303.574219 244.914062 C 303.257812 245.125 302.964844 245.363281 302.695312 245.632812 C 302.425781 245.902344 302.1875 246.195312 301.976562 246.511719 C 301.765625 246.824219 301.585938 247.160156 301.441406 247.511719 C 301.296875 247.863281 301.1875 248.222656 301.113281 248.597656 C 301.039062 248.96875 301 249.34375 301 249.726562 L 301 307.601562 L 260.488281 307.601562 C 259.539062 307.601562 258.597656 307.648438 257.652344 307.742188 C 256.710938 307.835938 255.773438 307.972656 254.84375 308.160156 C 253.914062 308.34375 252.996094 308.574219 252.089844 308.851562 C 251.183594 309.125 250.292969 309.445312 249.417969 309.808594 C 248.542969 310.171875 247.6875 310.574219 246.851562 311.023438 C 246.015625 311.46875 245.207031 311.957031 244.417969 312.480469 C 243.628906 313.007812 242.871094 313.574219 242.136719 314.175781 C 241.40625 314.773438 240.707031 315.410156 240.035156 316.082031 C 239.367188 316.75 238.730469 317.453125 238.128906 318.183594 C 237.527344 318.917969 236.964844 319.675781 236.4375 320.464844 C 235.914062 321.253906 235.425781 322.066406 234.980469 322.902344 C 234.535156 323.734375 234.128906 324.589844 233.765625 325.46875 C 233.402344 326.34375 233.085938 327.234375 232.808594 328.140625 C 232.535156 329.046875 232.304688 329.964844 232.121094 330.894531 C 231.9375 331.824219 231.796875 332.757812 231.703125 333.703125 C 231.613281 334.644531 231.566406 335.589844 231.566406 336.539062 C 231.566406 337.484375 231.613281 338.429688 231.703125 339.375 C 231.796875 340.316406 231.9375 341.253906 232.121094 342.179688 C 232.304688 343.109375 232.535156 344.027344 232.808594 344.933594 C 233.085938 345.84375 233.402344 346.734375 233.765625 347.609375 C 234.128906 348.484375 234.535156 349.339844 234.980469 350.175781 C 235.425781 351.011719 235.914062 351.824219 236.4375 352.609375 C 236.964844 353.398438 237.527344 354.160156 238.128906 354.890625 C 238.730469 355.625 239.367188 356.324219 240.035156 356.996094 C 240.707031 357.664062 241.40625 358.300781 242.136719 358.902344 C 242.871094 359.503906 243.628906 360.066406 244.417969 360.59375 C 245.207031 361.121094 246.015625 361.605469 246.851562 362.054688 C 247.6875 362.5 248.542969 362.90625 249.417969 363.269531 C 250.292969 363.632812 251.183594 363.949219 252.089844 364.226562 C 252.996094 364.5 253.914062 364.730469 254.84375 364.917969 C 255.773438 365.101562 256.710938 365.242188 257.652344 365.335938 C 258.597656 365.429688 259.539062 365.476562 260.488281 365.476562 L 301 365.476562 L 301 377.050781 L 248.914062 377.050781 C 248.34375 377.050781 247.777344 377.082031 247.214844 377.136719 C 246.648438 377.195312 246.085938 377.28125 245.53125 377.390625 C 244.972656 377.503906 244.421875 377.644531 243.878906 377.808594 C 243.335938 377.976562 242.800781 378.167969 242.277344 378.386719 C 241.753906 378.605469 241.238281 378.847656 240.738281 379.117188 C 240.238281 379.382812 239.75 379.675781 239.28125 379.992188 C 238.808594 380.308594 238.351562 380.648438 237.914062 381.007812 C 237.472656 381.367188 237.054688 381.75 236.652344 382.152344 C 236.25 382.550781 235.867188 382.972656 235.507812 383.410156 C 235.148438 383.851562 234.808594 384.308594 234.492188 384.777344 C 234.175781 385.25 233.882812 385.738281 233.617188 386.238281 C 233.347656 386.738281 233.105469 387.25 232.886719 387.777344 C 232.667969 388.300781 232.476562 388.835938 232.308594 389.378906 C 232.144531 389.921875 232.003906 390.472656 231.894531 391.027344 C 231.78125 391.585938 231.695312 392.148438 231.640625 392.710938 C 231.582031 393.277344 231.550781 393.84375 231.550781 394.414062 L 231.550781 573.824219 C 231.550781 574.394531 231.582031 574.960938 231.640625 575.527344 C 231.695312 576.089844 231.78125 576.652344 231.894531 577.207031 C 232.003906 577.765625 232.144531 578.316406 232.308594 578.859375 C 232.476562 579.402344 232.667969 579.9375 232.886719 580.460938 C 233.105469 580.984375 233.347656 581.5 233.617188 582 C 233.882812 582.5 234.175781 582.988281 234.492188 583.460938 C 234.808594 583.929688 235.148438 584.386719 235.507812 584.824219 C 235.867188 585.265625 236.25 585.683594 236.652344 586.085938 C 237.054688 586.488281 237.472656 586.871094 237.914062 587.230469 C 238.351562 587.589844 238.808594 587.929688 239.28125 588.246094 C 239.75 588.5625 240.238281 588.855469 240.738281 589.121094 C 241.238281 589.390625 241.753906 589.632812 242.277344 589.851562 C 242.800781 590.070312 243.335938 590.261719 243.878906 590.429688 C 244.421875 590.59375 244.972656 590.734375 245.53125 590.84375 C 246.085938 590.957031 246.648438 591.042969 247.214844 591.097656 C 247.777344 591.15625 248.34375 591.1875 248.914062 591.1875 L 573.011719 591.1875 C 573.394531 591.1875 573.769531 591.152344 574.140625 591.078125 C 574.515625 591.003906 574.878906 590.894531 575.226562 590.746094 C 575.578125 590.601562 575.914062 590.421875 576.230469 590.210938 C 576.542969 590 576.835938 589.761719 577.105469 589.492188 C 577.375 589.222656 577.613281 588.929688 577.824219 588.617188 C 578.035156 588.300781 578.214844 587.964844 578.359375 587.613281 C 578.503906 587.265625 578.617188 586.902344 578.691406 586.53125 C 578.765625 586.15625 578.800781 585.78125 578.800781 585.398438 L 578.800781 307.601562 C 578.800781 306.785156 578.632812 306.003906 578.300781 305.257812 C 577.964844 304.511719 577.496094 303.863281 576.890625 303.316406 Z M 266.277344 353.898438 L 260.488281 353.898438 C 259.917969 353.898438 259.351562 353.871094 258.785156 353.816406 C 258.21875 353.761719 257.660156 353.675781 257.101562 353.566406 C 256.542969 353.457031 255.992188 353.316406 255.449219 353.152344 C 254.902344 352.988281 254.371094 352.796875 253.84375 352.578125 C 253.320312 352.359375 252.804688 352.117188 252.304688 351.851562 C 251.800781 351.582031 251.316406 351.289062 250.84375 350.972656 C 250.371094 350.660156 249.914062 350.320312 249.472656 349.960938 C 249.035156 349.597656 248.613281 349.21875 248.210938 348.816406 C 247.808594 348.414062 247.425781 347.992188 247.066406 347.550781 C 246.707031 347.113281 246.367188 346.65625 246.050781 346.183594 C 245.734375 345.710938 245.445312 345.222656 245.175781 344.722656 C 244.90625 344.222656 244.664062 343.707031 244.449219 343.183594 C 244.230469 342.65625 244.039062 342.121094 243.875 341.578125 C 243.707031 341.035156 243.570312 340.484375 243.460938 339.925781 C 243.347656 339.367188 243.265625 338.804688 243.210938 338.238281 C 243.152344 337.671875 243.125 337.105469 243.125 336.539062 C 243.125 335.96875 243.152344 335.402344 243.210938 334.835938 C 243.265625 334.269531 243.347656 333.707031 243.460938 333.152344 C 243.570312 332.59375 243.707031 332.042969 243.875 331.496094 C 244.039062 330.953125 244.230469 330.417969 244.449219 329.894531 C 244.664062 329.367188 244.90625 328.855469 245.175781 328.351562 C 245.445312 327.851562 245.734375 327.363281 246.050781 326.890625 C 246.367188 326.417969 246.707031 325.960938 247.066406 325.523438 C 247.425781 325.082031 247.808594 324.664062 248.210938 324.261719 C 248.613281 323.859375 249.035156 323.476562 249.472656 323.117188 C 249.914062 322.753906 250.371094 322.417969 250.84375 322.101562 C 251.316406 321.785156 251.800781 321.492188 252.304688 321.226562 C 252.804688 320.957031 253.320312 320.714844 253.84375 320.496094 C 254.371094 320.28125 254.902344 320.089844 255.449219 319.921875 C 255.992188 319.757812 256.542969 319.621094 257.101562 319.507812 C 257.660156 319.398438 258.21875 319.316406 258.785156 319.257812 C 259.351562 319.203125 259.917969 319.175781 260.488281 319.175781 L 266.277344 319.175781 Z M 515.136719 262.804688 L 558.023438 301.8125 L 515.136719 301.8125 Z M 277.851562 319.175781 L 474.625 319.175781 L 474.625 330.75 L 277.851562 330.75 Z M 468.839844 434.925781 L 468.839844 423.351562 L 544.074219 423.351562 L 544.074219 434.925781 Z M 544.074219 446.5 L 544.074219 458.074219 L 468.839844 458.074219 L 468.839844 446.5 Z M 468.839844 411.773438 L 468.839844 400.199219 L 544.074219 400.199219 L 544.074219 411.773438 Z M 468.839844 388.625 L 468.839844 365.476562 L 544.074219 365.476562 L 544.074219 388.625 Z M 277.851562 353.898438 L 277.851562 342.324219 L 474.625 342.324219 L 474.625 353.898438 Z M 376.238281 365.476562 L 376.238281 377.050781 L 335.726562 377.050781 L 335.726562 365.476562 Z M 324.152344 365.476562 L 324.152344 377.050781 L 312.574219 377.050781 L 312.574219 365.476562 Z M 393.601562 573.824219 C 393.601562 574.207031 393.5625 574.582031 393.488281 574.953125 C 393.414062 575.328125 393.304688 575.6875 393.160156 576.039062 C 393.015625 576.390625 392.835938 576.726562 392.625 577.039062 C 392.414062 577.355469 392.175781 577.648438 391.90625 577.917969 C 391.636719 578.1875 391.34375 578.425781 391.027344 578.636719 C 390.710938 578.847656 390.378906 579.027344 390.027344 579.171875 C 389.675781 579.316406 389.316406 579.425781 388.941406 579.5 C 388.570312 579.574219 388.195312 579.613281 387.8125 579.613281 L 248.914062 579.613281 C 248.535156 579.613281 248.15625 579.574219 247.785156 579.5 C 247.410156 579.425781 247.050781 579.316406 246.699219 579.171875 C 246.347656 579.027344 246.015625 578.847656 245.699219 578.636719 C 245.382812 578.425781 245.089844 578.1875 244.820312 577.917969 C 244.550781 577.648438 244.3125 577.355469 244.101562 577.039062 C 243.890625 576.726562 243.710938 576.390625 243.566406 576.039062 C 243.421875 575.6875 243.3125 575.328125 243.238281 574.953125 C 243.164062 574.582031 243.125 574.207031 243.125 573.824219 L 243.125 394.414062 C 243.125 394.03125 243.164062 393.65625 243.238281 393.285156 C 243.3125 392.910156 243.421875 392.550781 243.566406 392.199219 C 243.710938 391.847656 243.890625 391.511719 244.101562 391.199219 C 244.3125 390.882812 244.550781 390.589844 244.820312 390.320312 C 245.089844 390.050781 245.382812 389.8125 245.699219 389.601562 C 246.015625 389.390625 246.347656 389.210938 246.699219 389.066406 C 247.050781 388.921875 247.410156 388.8125 247.785156 388.738281 C 248.15625 388.664062 248.535156 388.625 248.914062 388.625 L 387.8125 388.625 C 388.195312 388.625 388.570312 388.664062 388.941406 388.738281 C 389.316406 388.8125 389.675781 388.921875 390.027344 389.066406 C 390.378906 389.210938 390.710938 389.390625 391.027344 389.601562 C 391.34375 389.8125 391.636719 390.050781 391.90625 390.320312 C 392.175781 390.589844 392.414062 390.882812 392.625 391.199219 C 392.835938 391.511719 393.015625 391.847656 393.160156 392.199219 C 393.304688 392.550781 393.414062 392.910156 393.488281 393.285156 C 393.5625 393.65625 393.601562 394.03125 393.601562 394.414062 Z M 387.8125 377.050781 L 387.8125 365.476562 L 457.261719 365.476562 L 457.261719 388.625 L 404.132812 388.625 C 403.835938 387.785156 403.476562 386.976562 403.050781 386.195312 C 402.628906 385.410156 402.148438 384.664062 401.613281 383.953125 C 401.074219 383.246094 400.488281 382.582031 399.847656 381.960938 C 399.210938 381.34375 398.527344 380.777344 397.800781 380.261719 C 397.074219 379.746094 396.316406 379.289062 395.519531 378.890625 C 394.722656 378.492188 393.902344 378.15625 393.054688 377.886719 C 392.207031 377.613281 391.34375 377.40625 390.464844 377.265625 C 389.585938 377.128906 388.703125 377.054688 387.8125 377.050781 Z M 405.175781 434.925781 L 405.175781 423.351562 L 457.261719 423.351562 L 457.261719 434.925781 Z M 457.261719 446.5 L 457.261719 458.074219 L 405.175781 458.074219 L 405.175781 446.5 Z M 405.175781 411.773438 L 405.175781 400.199219 L 457.261719 400.199219 L 457.261719 411.773438 Z M 567.226562 579.613281 L 404.132812 579.613281 C 404.8125 577.742188 405.160156 575.8125 405.175781 573.824219 L 405.175781 469.648438 L 549.863281 469.648438 C 550.242188 469.648438 550.621094 469.613281 550.992188 469.539062 C 551.363281 469.464844 551.726562 469.355469 552.078125 469.210938 C 552.429688 469.0625 552.761719 468.886719 553.078125 468.675781 C 553.394531 468.464844 553.6875 468.222656 553.957031 467.957031 C 554.222656 467.6875 554.464844 467.394531 554.675781 467.078125 C 554.886719 466.761719 555.066406 466.429688 555.210938 466.078125 C 555.355469 465.726562 555.464844 465.363281 555.539062 464.992188 C 555.613281 464.621094 555.652344 464.242188 555.652344 463.863281 L 555.652344 359.6875 C 555.652344 359.308594 555.613281 358.929688 555.539062 358.558594 C 555.464844 358.1875 555.355469 357.824219 555.210938 357.472656 C 555.066406 357.121094 554.886719 356.789062 554.675781 356.472656 C 554.464844 356.15625 554.222656 355.863281 553.957031 355.59375 C 553.6875 355.328125 553.394531 355.085938 553.078125 354.875 C 552.761719 354.664062 552.429688 354.484375 552.078125 354.339844 C 551.726562 354.195312 551.363281 354.085938 550.992188 354.011719 C 550.621094 353.9375 550.242188 353.898438 549.863281 353.898438 L 513.285156 353.898438 L 546.042969 341.976562 C 546.601562 341.773438 547.117188 341.492188 547.589844 341.132812 C 548.0625 340.769531 548.46875 340.347656 548.808594 339.859375 C 549.148438 339.371094 549.410156 338.847656 549.589844 338.28125 C 549.765625 337.710938 549.855469 337.132812 549.855469 336.539062 C 549.855469 335.945312 549.765625 335.363281 549.589844 334.796875 C 549.410156 334.230469 549.148438 333.703125 548.808594 333.214844 C 548.46875 332.730469 548.0625 332.304688 547.589844 331.945312 C 547.117188 331.582031 546.601562 331.300781 546.042969 331.097656 L 482.382812 307.949219 C 481.746094 307.714844 481.089844 307.597656 480.414062 307.601562 L 312.574219 307.601562 L 312.574219 255.511719 L 503.5625 255.511719 L 503.5625 307.601562 C 503.5625 307.980469 503.601562 308.355469 503.675781 308.730469 C 503.75 309.101562 503.859375 309.464844 504.003906 309.816406 C 504.148438 310.167969 504.328125 310.5 504.539062 310.816406 C 504.75 311.132812 504.988281 311.425781 505.257812 311.691406 C 505.527344 311.960938 505.820312 312.203125 506.136719 312.414062 C 506.453125 312.625 506.785156 312.800781 507.136719 312.945312 C 507.488281 313.09375 507.847656 313.203125 508.222656 313.277344 C 508.59375 313.351562 508.972656 313.386719 509.351562 313.386719 L 567.226562 313.386719 Z M 486.199219 351.410156 L 486.199219 321.664062 L 527.117188 336.539062 Z M 486.199219 351.410156 " fill-opacity="1" fill-rule="nonzero"/></g><path fill="#1c4670" d="M 376.238281 400.199219 L 260.488281 400.199219 C 260.109375 400.199219 259.730469 400.238281 259.359375 400.3125 C 258.988281 400.386719 258.625 400.496094 258.273438 400.640625 C 257.921875 400.785156 257.589844 400.964844 257.273438 401.175781 C 256.957031 401.386719 256.664062 401.625 256.394531 401.894531 C 256.128906 402.164062 255.886719 402.457031 255.675781 402.773438 C 255.464844 403.089844 255.285156 403.421875 255.140625 403.773438 C 254.996094 404.125 254.886719 404.484375 254.8125 404.859375 C 254.738281 405.230469 254.699219 405.609375 254.699219 405.988281 L 254.699219 434.925781 C 254.699219 435.304688 254.738281 435.683594 254.8125 436.054688 C 254.886719 436.425781 254.996094 436.789062 255.140625 437.140625 C 255.285156 437.492188 255.464844 437.824219 255.675781 438.140625 C 255.886719 438.457031 256.128906 438.75 256.394531 439.019531 C 256.664062 439.285156 256.957031 439.527344 257.273438 439.738281 C 257.589844 439.949219 257.921875 440.125 258.273438 440.273438 C 258.625 440.417969 258.988281 440.527344 259.359375 440.601562 C 259.730469 440.675781 260.109375 440.710938 260.488281 440.710938 L 376.238281 440.710938 C 376.617188 440.710938 376.996094 440.675781 377.367188 440.601562 C 377.738281 440.527344 378.101562 440.417969 378.453125 440.273438 C 378.804688 440.125 379.136719 439.949219 379.453125 439.738281 C 379.769531 439.527344 380.0625 439.285156 380.332031 439.019531 C 380.597656 438.75 380.839844 438.457031 381.050781 438.140625 C 381.261719 437.824219 381.441406 437.492188 381.585938 437.140625 C 381.730469 436.789062 381.839844 436.425781 381.914062 436.054688 C 381.988281 435.683594 382.027344 435.304688 382.027344 434.925781 L 382.027344 405.988281 C 382.027344 405.609375 381.988281 405.230469 381.914062 404.859375 C 381.839844 404.484375 381.730469 404.125 381.585938 403.773438 C 381.441406 403.421875 381.261719 403.089844 381.050781 402.773438 C 380.839844 402.457031 380.597656 402.164062 380.332031 401.894531 C 380.0625 401.625 379.769531 401.386719 379.453125 401.175781 C 379.136719 400.964844 378.804688 400.785156 378.453125 400.640625 C 378.101562 400.496094 377.738281 400.386719 377.367188 400.3125 C 376.996094 400.238281 376.617188 400.199219 376.238281 400.199219 Z M 370.449219 429.136719 L 266.277344 429.136719 L 266.277344 411.773438 L 370.449219 411.773438 Z M 370.449219 429.136719 " fill-opacity="1" fill-rule="nonzero"/><path fill="#1c4670" d="M 283.636719 452.289062 L 260.488281 452.289062 C 260.109375 452.289062 259.730469 452.324219 259.359375 452.398438 C 258.988281 452.472656 258.625 452.582031 258.273438 452.726562 C 257.921875 452.875 257.589844 453.050781 257.273438 453.261719 C 256.957031 453.472656 256.664062 453.714844 256.394531 453.984375 C 256.128906 454.25 255.886719 454.542969 255.675781 454.859375 C 255.464844 455.175781 255.285156 455.507812 255.140625 455.859375 C 254.996094 456.210938 254.886719 456.574219 254.8125 456.945312 C 254.738281 457.320312 254.699219 457.695312 254.699219 458.074219 L 254.699219 481.226562 C 254.699219 481.605469 254.738281 481.980469 254.8125 482.355469 C 254.886719 482.726562 254.996094 483.089844 255.140625 483.441406 C 255.285156 483.792969 255.464844 484.125 255.675781 484.441406 C 255.886719 484.757812 256.128906 485.050781 256.394531 485.316406 C 256.664062 485.585938 256.957031 485.828125 257.273438 486.039062 C 257.589844 486.25 257.921875 486.425781 258.273438 486.570312 C 258.625 486.71875 258.988281 486.828125 259.359375 486.902344 C 259.730469 486.976562 260.109375 487.011719 260.488281 487.011719 L 283.636719 487.011719 C 284.019531 487.011719 284.394531 486.976562 284.765625 486.902344 C 285.140625 486.828125 285.503906 486.71875 285.851562 486.570312 C 286.203125 486.425781 286.539062 486.25 286.855469 486.039062 C 287.167969 485.828125 287.460938 485.585938 287.730469 485.316406 C 288 485.050781 288.238281 484.757812 288.449219 484.441406 C 288.660156 484.125 288.839844 483.792969 288.984375 483.441406 C 289.128906 483.089844 289.242188 482.726562 289.316406 482.355469 C 289.390625 481.980469 289.425781 481.605469 289.425781 481.226562 L 289.425781 458.074219 C 289.425781 457.695312 289.390625 457.320312 289.316406 456.945312 C 289.242188 456.574219 289.128906 456.210938 288.984375 455.859375 C 288.839844 455.507812 288.660156 455.175781 288.449219 454.859375 C 288.238281 454.542969 288 454.25 287.730469 453.984375 C 287.460938 453.714844 287.167969 453.472656 286.855469 453.261719 C 286.539062 453.050781 286.203125 452.875 285.851562 452.726562 C 285.503906 452.582031 285.140625 452.472656 284.765625 452.398438 C 284.394531 452.324219 284.019531 452.289062 283.636719 452.289062 Z M 277.851562 475.4375 L 266.277344 475.4375 L 266.277344 463.863281 L 277.851562 463.863281 Z M 277.851562 475.4375 " fill-opacity="1" fill-rule="nonzero"/><path fill="#1c4670" d="M 283.636719 492.800781 L 260.488281 492.800781 C 260.109375 492.800781 259.730469 492.835938 259.359375 492.910156 C 258.988281 492.984375 258.625 493.09375 258.273438 493.242188 C 257.921875 493.386719 257.589844 493.566406 257.273438 493.777344 C 256.957031 493.988281 256.664062 494.226562 256.394531 494.496094 C 256.128906 494.765625 255.886719 495.054688 255.675781 495.371094 C 255.464844 495.6875 255.285156 496.023438 255.140625 496.371094 C 254.996094 496.722656 254.886719 497.085938 254.8125 497.457031 C 254.738281 497.832031 254.699219 498.207031 254.699219 498.585938 L 254.699219 521.738281 C 254.699219 522.117188 254.738281 522.496094 254.8125 522.867188 C 254.886719 523.238281 254.996094 523.601562 255.140625 523.953125 C 255.285156 524.304688 255.464844 524.636719 255.675781 524.953125 C 255.886719 525.269531 256.128906 525.5625 256.394531 525.832031 C 256.664062 526.097656 256.957031 526.339844 257.273438 526.550781 C 257.589844 526.761719 257.921875 526.9375 258.273438 527.085938 C 258.625 527.230469 258.988281 527.339844 259.359375 527.414062 C 259.730469 527.488281 260.109375 527.523438 260.488281 527.523438 L 283.636719 527.523438 C 284.019531 527.523438 284.394531 527.488281 284.765625 527.414062 C 285.140625 527.339844 285.503906 527.230469 285.851562 527.085938 C 286.203125 526.9375 286.539062 526.761719 286.855469 526.550781 C 287.167969 526.339844 287.460938 526.097656 287.730469 525.832031 C 288 525.5625 288.238281 525.269531 288.449219 524.953125 C 288.660156 524.636719 288.839844 524.304688 288.984375 523.953125 C 289.128906 523.601562 289.242188 523.238281 289.316406 522.867188 C 289.390625 522.496094 289.425781 522.117188 289.425781 521.738281 L 289.425781 498.585938 C 289.425781 498.207031 289.390625 497.832031 289.316406 497.457031 C 289.242188 497.085938 289.128906 496.722656 288.984375 496.371094 C 288.839844 496.023438 288.660156 495.6875 288.449219 495.371094 C 288.238281 495.054688 288 494.765625 287.730469 494.496094 C 287.460938 494.226562 287.167969 493.988281 286.855469 493.777344 C 286.539062 493.566406 286.203125 493.386719 285.851562 493.242188 C 285.503906 493.09375 285.140625 492.984375 284.765625 492.910156 C 284.394531 492.835938 284.019531 492.800781 283.636719 492.800781 Z M 277.851562 515.949219 L 266.277344 515.949219 L 266.277344 504.375 L 277.851562 504.375 Z M 277.851562 515.949219 " fill-opacity="1" fill-rule="nonzero"/><path fill="#1c4670" d="M 283.636719 533.3125 L 260.488281 533.3125 C 260.109375 533.3125 259.730469 533.351562 259.359375 533.425781 C 258.988281 533.5 258.625 533.609375 258.273438 533.753906 C 257.921875 533.898438 257.589844 534.078125 257.273438 534.289062 C 256.957031 534.5 256.664062 534.738281 256.394531 535.007812 C 256.128906 535.277344 255.886719 535.570312 255.675781 535.886719 C 255.464844 536.199219 255.285156 536.535156 255.140625 536.886719 C 254.996094 537.238281 254.886719 537.597656 254.8125 537.972656 C 254.738281 538.34375 254.699219 538.71875 254.699219 539.101562 L 254.699219 562.25 C 254.699219 562.628906 254.738281 563.007812 254.8125 563.378906 C 254.886719 563.753906 254.996094 564.113281 255.140625 564.464844 C 255.285156 564.816406 255.464844 565.148438 255.675781 565.464844 C 255.886719 565.78125 256.128906 566.074219 256.394531 566.34375 C 256.664062 566.613281 256.957031 566.851562 257.273438 567.0625 C 257.589844 567.273438 257.921875 567.453125 258.273438 567.597656 C 258.625 567.742188 258.988281 567.851562 259.359375 567.925781 C 259.730469 568 260.109375 568.039062 260.488281 568.039062 L 283.636719 568.039062 C 284.019531 568.039062 284.394531 568 284.765625 567.925781 C 285.140625 567.851562 285.503906 567.742188 285.851562 567.597656 C 286.203125 567.453125 286.539062 567.273438 286.855469 567.0625 C 287.167969 566.851562 287.460938 566.613281 287.730469 566.34375 C 288 566.074219 288.238281 565.78125 288.449219 565.464844 C 288.660156 565.148438 288.839844 564.816406 288.984375 564.464844 C 289.128906 564.113281 289.242188 563.753906 289.316406 563.378906 C 289.390625 563.007812 289.425781 562.628906 289.425781 562.25 L 289.425781 539.101562 C 289.425781 538.71875 289.390625 538.34375 289.316406 537.972656 C 289.242188 537.597656 289.128906 537.238281 288.984375 536.886719 C 288.839844 536.535156 288.660156 536.199219 288.449219 535.886719 C 288.238281 535.570312 288 535.277344 287.730469 535.007812 C 287.460938 534.738281 287.167969 534.5 286.855469 534.289062 C 286.539062 534.078125 286.203125 533.898438 285.851562 533.753906 C 285.503906 533.609375 285.140625 533.5 284.765625 533.425781 C 284.394531 533.351562 284.019531 533.3125 283.636719 533.3125 Z M 277.851562 556.460938 L 266.277344 556.460938 L 266.277344 544.886719 L 277.851562 544.886719 Z M 277.851562 556.460938 " fill-opacity="1" fill-rule="nonzero"/><path fill="#1c4670" d="M 329.9375 452.289062 L 306.789062 452.289062 C 306.410156 452.289062 306.03125 452.324219 305.660156 452.398438 C 305.285156 452.472656 304.925781 452.582031 304.574219 452.726562 C 304.222656 452.875 303.890625 453.050781 303.574219 453.261719 C 303.257812 453.472656 302.964844 453.714844 302.695312 453.984375 C 302.425781 454.25 302.1875 454.542969 301.976562 454.859375 C 301.765625 455.175781 301.585938 455.507812 301.441406 455.859375 C 301.296875 456.210938 301.1875 456.574219 301.113281 456.945312 C 301.039062 457.320312 301 457.695312 301 458.074219 L 301 481.226562 C 301 481.605469 301.039062 481.980469 301.113281 482.355469 C 301.1875 482.726562 301.296875 483.089844 301.441406 483.441406 C 301.585938 483.792969 301.765625 484.125 301.976562 484.441406 C 302.1875 484.757812 302.425781 485.050781 302.695312 485.316406 C 302.964844 485.585938 303.257812 485.828125 303.574219 486.039062 C 303.890625 486.25 304.222656 486.425781 304.574219 486.570312 C 304.925781 486.71875 305.285156 486.828125 305.660156 486.902344 C 306.03125 486.976562 306.410156 487.011719 306.789062 487.011719 L 329.9375 487.011719 C 330.320312 487.011719 330.695312 486.976562 331.066406 486.902344 C 331.441406 486.828125 331.800781 486.71875 332.152344 486.570312 C 332.503906 486.425781 332.835938 486.25 333.152344 486.039062 C 333.46875 485.828125 333.761719 485.585938 334.03125 485.316406 C 334.300781 485.050781 334.539062 484.757812 334.75 484.441406 C 334.960938 484.125 335.140625 483.792969 335.285156 483.441406 C 335.429688 483.089844 335.539062 482.726562 335.613281 482.355469 C 335.6875 481.980469 335.726562 481.605469 335.726562 481.226562 L 335.726562 458.074219 C 335.726562 457.695312 335.6875 457.320312 335.613281 456.945312 C 335.539062 456.574219 335.429688 456.210938 335.285156 455.859375 C 335.140625 455.507812 334.960938 455.175781 334.75 454.859375 C 334.539062 454.542969 334.300781 454.25 334.03125 453.984375 C 333.761719 453.714844 333.46875 453.472656 333.152344 453.261719 C 332.835938 453.050781 332.503906 452.875 332.152344 452.726562 C 331.800781 452.582031 331.441406 452.472656 331.066406 452.398438 C 330.695312 452.324219 330.320312 452.289062 329.9375 452.289062 Z M 324.152344 475.4375 L 312.574219 475.4375 L 312.574219 463.863281 L 324.152344 463.863281 Z M 324.152344 475.4375 " fill-opacity="1" fill-rule="nonzero"/><path fill="#1c4670" d="M 329.9375 492.800781 L 306.789062 492.800781 C 306.410156 492.800781 306.03125 492.835938 305.660156 492.910156 C 305.285156 492.984375 304.925781 493.09375 304.574219 493.242188 C 304.222656 493.386719 303.890625 493.566406 303.574219 493.777344 C 303.257812 493.988281 302.964844 494.226562 302.695312 494.496094 C 302.425781 494.765625 302.1875 495.054688 301.976562 495.371094 C 301.765625 495.6875 301.585938 496.023438 301.441406 496.371094 C 301.296875 496.722656 301.1875 497.085938 301.113281 497.457031 C 301.039062 497.832031 301 498.207031 301 498.585938 L 301 521.738281 C 301 522.117188 301.039062 522.496094 301.113281 522.867188 C 301.1875 523.238281 301.296875 523.601562 301.441406 523.953125 C 301.585938 524.304688 301.765625 524.636719 301.976562 524.953125 C 302.1875 525.269531 302.425781 525.5625 302.695312 525.832031 C 302.964844 526.097656 303.257812 526.339844 303.574219 526.550781 C 303.890625 526.761719 304.222656 526.9375 304.574219 527.085938 C 304.925781 527.230469 305.285156 527.339844 305.660156 527.414062 C 306.03125 527.488281 306.410156 527.523438 306.789062 527.523438 L 329.9375 527.523438 C 330.320312 527.523438 330.695312 527.488281 331.066406 527.414062 C 331.441406 527.339844 331.800781 527.230469 332.152344 527.085938 C 332.503906 526.9375 332.835938 526.761719 333.152344 526.550781 C 333.46875 526.339844 333.761719 526.097656 334.03125 525.832031 C 334.300781 525.5625 334.539062 525.269531 334.75 524.953125 C 334.960938 524.636719 335.140625 524.304688 335.285156 523.953125 C 335.429688 523.601562 335.539062 523.238281 335.613281 522.867188 C 335.6875 522.496094 335.726562 522.117188 335.726562 521.738281 L 335.726562 498.585938 C 335.726562 498.207031 335.6875 497.832031 335.613281 497.457031 C 335.539062 497.085938 335.429688 496.722656 335.285156 496.371094 C 335.140625 496.023438 334.960938 495.6875 334.75 495.371094 C 334.539062 495.054688 334.300781 494.765625 334.03125 494.496094 C 333.761719 494.226562 333.46875 493.988281 333.152344 493.777344 C 332.835938 493.566406 332.503906 493.386719 332.152344 493.242188 C 331.800781 493.09375 331.441406 492.984375 331.066406 492.910156 C 330.695312 492.835938 330.320312 492.800781 329.9375 492.800781 Z M 324.152344 515.949219 L 312.574219 515.949219 L 312.574219 504.375 L 324.152344 504.375 Z M 324.152344 515.949219 " fill-opacity="1" fill-rule="nonzero"/><path fill="#1c4670" d="M 329.9375 533.3125 L 306.789062 533.3125 C 306.410156 533.3125 306.03125 533.351562 305.660156 533.425781 C 305.285156 533.5 304.925781 533.609375 304.574219 533.753906 C 304.222656 533.898438 303.890625 534.078125 303.574219 534.289062 C 303.257812 534.5 302.964844 534.738281 302.695312 535.007812 C 302.425781 535.277344 302.1875 535.570312 301.976562 535.886719 C 301.765625 536.199219 301.585938 536.535156 301.441406 536.886719 C 301.296875 537.238281 301.1875 537.597656 301.113281 537.972656 C 301.039062 538.34375 301 538.71875 301 539.101562 L 301 562.25 C 301 562.628906 301.039062 563.007812 301.113281 563.378906 C 301.1875 563.753906 301.296875 564.113281 301.441406 564.464844 C 301.585938 564.816406 301.765625 565.148438 301.976562 565.464844 C 302.1875 565.78125 302.425781 566.074219 302.695312 566.34375 C 302.964844 566.613281 303.257812 566.851562 303.574219 567.0625 C 303.890625 567.273438 304.222656 567.453125 304.574219 567.597656 C 304.925781 567.742188 305.285156 567.851562 305.660156 567.925781 C 306.03125 568 306.410156 568.039062 306.789062 568.039062 L 329.9375 568.039062 C 330.320312 568.039062 330.695312 568 331.066406 567.925781 C 331.441406 567.851562 331.800781 567.742188 332.152344 567.597656 C 332.503906 567.453125 332.835938 567.273438 333.152344 567.0625 C 333.46875 566.851562 333.761719 566.613281 334.03125 566.34375 C 334.300781 566.074219 334.539062 565.78125 334.75 565.464844 C 334.960938 565.148438 335.140625 564.816406 335.285156 564.464844 C 335.429688 564.113281 335.539062 563.753906 335.613281 563.378906 C 335.6875 563.007812 335.726562 562.628906 335.726562 562.25 L 335.726562 539.101562 C 335.726562 538.71875 335.6875 538.34375 335.613281 537.972656 C 335.539062 537.597656 335.429688 537.238281 335.285156 536.886719 C 335.140625 536.535156 334.960938 536.199219 334.75 535.886719 C 334.539062 535.570312 334.300781 535.277344 334.03125 535.007812 C 333.761719 534.738281 333.46875 534.5 333.152344 534.289062 C 332.835938 534.078125 332.503906 533.898438 332.152344 533.753906 C 331.800781 533.609375 331.441406 533.5 331.066406 533.425781 C 330.695312 533.351562 330.320312 533.3125 329.9375 533.3125 Z M 324.152344 556.460938 L 312.574219 556.460938 L 312.574219 544.886719 L 324.152344 544.886719 Z M 324.152344 556.460938 " fill-opacity="1" fill-rule="nonzero"/><path fill="#1c4670" d="M 376.238281 452.289062 L 353.089844 452.289062 C 352.707031 452.289062 352.332031 452.324219 351.960938 452.398438 C 351.585938 452.472656 351.226562 452.582031 350.875 452.726562 C 350.523438 452.875 350.1875 453.050781 349.871094 453.261719 C 349.558594 453.472656 349.265625 453.714844 348.996094 453.984375 C 348.726562 454.25 348.488281 454.542969 348.277344 454.859375 C 348.066406 455.175781 347.886719 455.507812 347.742188 455.859375 C 347.597656 456.210938 347.484375 456.574219 347.410156 456.945312 C 347.339844 457.320312 347.300781 457.695312 347.300781 458.074219 L 347.300781 481.226562 C 347.300781 481.605469 347.339844 481.980469 347.410156 482.355469 C 347.484375 482.726562 347.597656 483.089844 347.742188 483.441406 C 347.886719 483.792969 348.066406 484.125 348.277344 484.441406 C 348.488281 484.757812 348.726562 485.050781 348.996094 485.316406 C 349.265625 485.585938 349.558594 485.828125 349.871094 486.039062 C 350.1875 486.25 350.523438 486.425781 350.875 486.570312 C 351.226562 486.71875 351.585938 486.828125 351.960938 486.902344 C 352.332031 486.976562 352.707031 487.011719 353.089844 487.011719 L 376.238281 487.011719 C 376.617188 487.011719 376.996094 486.976562 377.367188 486.902344 C 377.738281 486.828125 378.101562 486.71875 378.453125 486.570312 C 378.804688 486.425781 379.136719 486.25 379.453125 486.039062 C 379.769531 485.828125 380.0625 485.585938 380.332031 485.316406 C 380.597656 485.050781 380.839844 484.757812 381.050781 484.441406 C 381.261719 484.125 381.441406 483.792969 381.585938 483.441406 C 381.730469 483.089844 381.839844 482.726562 381.914062 482.355469 C 381.988281 481.980469 382.027344 481.605469 382.027344 481.226562 L 382.027344 458.074219 C 382.027344 457.695312 381.988281 457.320312 381.914062 456.945312 C 381.839844 456.574219 381.730469 456.210938 381.585938 455.859375 C 381.441406 455.507812 381.261719 455.175781 381.050781 454.859375 C 380.839844 454.542969 380.597656 454.25 380.332031 453.984375 C 380.0625 453.714844 379.769531 453.472656 379.453125 453.261719 C 379.136719 453.050781 378.804688 452.875 378.453125 452.726562 C 378.101562 452.582031 377.738281 452.472656 377.367188 452.398438 C 376.996094 452.324219 376.617188 452.289062 376.238281 452.289062 Z M 370.449219 475.4375 L 358.875 475.4375 L 358.875 463.863281 L 370.449219 463.863281 Z M 370.449219 475.4375 " fill-opacity="1" fill-rule="nonzero"/><path fill="#1c4670" d="M 376.238281 492.800781 L 353.089844 492.800781 C 352.707031 492.800781 352.332031 492.835938 351.960938 492.910156 C 351.585938 492.984375 351.226562 493.09375 350.875 493.242188 C 350.523438 493.386719 350.1875 493.566406 349.871094 493.777344 C 349.558594 493.988281 349.265625 494.226562 348.996094 494.496094 C 348.726562 494.765625 348.488281 495.054688 348.277344 495.371094 C 348.066406 495.6875 347.886719 496.023438 347.742188 496.371094 C 347.597656 496.722656 347.484375 497.085938 347.410156 497.457031 C 347.339844 497.832031 347.300781 498.207031 347.300781 498.585938 L 347.300781 562.25 C 347.300781 562.628906 347.339844 563.007812 347.410156 563.378906 C 347.484375 563.753906 347.597656 564.113281 347.742188 564.464844 C 347.886719 564.816406 348.066406 565.148438 348.277344 565.464844 C 348.488281 565.78125 348.726562 566.074219 348.996094 566.34375 C 349.265625 566.613281 349.558594 566.851562 349.871094 567.0625 C 350.1875 567.273438 350.523438 567.453125 350.875 567.597656 C 351.226562 567.742188 351.585938 567.851562 351.960938 567.925781 C 352.332031 568 352.707031 568.039062 353.089844 568.039062 L 376.238281 568.039062 C 376.617188 568.039062 376.996094 568 377.367188 567.925781 C 377.738281 567.851562 378.101562 567.742188 378.453125 567.597656 C 378.804688 567.453125 379.136719 567.273438 379.453125 567.0625 C 379.769531 566.851562 380.0625 566.613281 380.332031 566.34375 C 380.597656 566.074219 380.839844 565.78125 381.050781 565.464844 C 381.261719 565.148438 381.441406 564.816406 381.585938 564.464844 C 381.730469 564.113281 381.839844 563.753906 381.914062 563.378906 C 381.988281 563.007812 382.027344 562.628906 382.027344 562.25 L 382.027344 498.585938 C 382.027344 498.207031 381.988281 497.832031 381.914062 497.457031 C 381.839844 497.085938 381.730469 496.722656 381.585938 496.371094 C 381.441406 496.023438 381.261719 495.6875 381.050781 495.371094 C 380.839844 495.054688 380.597656 494.765625 380.332031 494.496094 C 380.0625 494.226562 379.769531 493.988281 379.453125 493.777344 C 379.136719 493.566406 378.804688 493.386719 378.453125 493.242188 C 378.101562 493.09375 377.738281 492.984375 377.367188 492.910156 C 376.996094 492.835938 376.617188 492.800781 376.238281 492.800781 Z M 370.449219 556.460938 L 358.875 556.460938 L 358.875 504.375 L 370.449219 504.375 Z M 370.449219 556.460938 " fill-opacity="1" fill-rule="nonzero"/><path fill="#1c4670" d="M 329.765625 272.875 L 364.488281 272.875 L 364.488281 284.449219 L 329.765625 284.449219 Z M 329.765625 272.875 " fill-opacity="1" fill-rule="nonzero"/><path fill="#1c4670" d="M 382.027344 272.875 L 405.175781 272.875 L 405.175781 284.449219 L 382.027344 284.449219 Z M 382.027344 272.875 " fill-opacity="1" fill-rule="nonzero"/><path fill="#1c4670" d="M 422.539062 487.011719 L 549.863281 487.011719 L 549.863281 498.585938 L 422.539062 498.585938 Z M 422.539062 487.011719 " fill-opacity="1" fill-rule="nonzero"/><path fill="#1c4670" d="M 422.539062 515.949219 L 549.863281 515.949219 L 549.863281 527.523438 L 422.539062 527.523438 Z M 422.539062 515.949219 " fill-opacity="1" fill-rule="nonzero"/><path fill="#1c4670" d="M 422.539062 544.886719 L 439.902344 544.886719 L 439.902344 556.460938 L 422.539062 556.460938 Z M 422.539062 544.886719 " fill-opacity="1" fill-rule="nonzero"/><path fill="#1c4670" d="M 451.476562 544.886719 L 468.839844 544.886719 L 468.839844 556.460938 L 451.476562 556.460938 Z M 451.476562 544.886719 " fill-opacity="1" fill-rule="nonzero"/><path fill="#1c4670" d="M 486.199219 544.886719 L 549.863281 544.886719 L 549.863281 556.460938 L 486.199219 556.460938 Z M 486.199219 544.886719 " fill-opacity="1" fill-rule="nonzero"/><g clip-path="url(#d6af136e87)"><path fill="#ffa229" d="M 576.890625 303.316406 L 513.226562 245.441406 C 512.703125 244.953125 512.105469 244.578125 511.433594 244.316406 C 510.765625 244.058594 510.070312 243.929688 509.351562 243.9375 L 306.789062 243.9375 C 306.410156 243.9375 306.03125 243.976562 305.660156 244.050781 C 305.285156 244.125 304.925781 244.234375 304.574219 244.378906 C 304.222656 244.523438 303.890625 244.703125 303.574219 244.914062 C 303.257812 245.125 302.964844 245.363281 302.695312 245.632812 C 302.425781 245.902344 302.1875 246.195312 301.976562 246.511719 C 301.765625 246.824219 301.585938 247.160156 301.441406 247.511719 C 301.296875 247.863281 301.1875 248.222656 301.113281 248.597656 C 301.039062 248.96875 301 249.34375 301 249.726562 L 301 307.601562 L 260.488281 307.601562 C 259.539062 307.601562 258.597656 307.648438 257.652344 307.742188 C 256.710938 307.835938 255.773438 307.972656 254.84375 308.160156 C 253.914062 308.34375 252.996094 308.574219 252.089844 308.851562 C 251.183594 309.125 250.292969 309.445312 249.417969 309.808594 C 248.542969 310.171875 247.6875 310.574219 246.851562 311.023438 C 246.015625 311.46875 245.207031 311.957031 244.417969 312.480469 C 243.628906 313.007812 242.871094 313.574219 242.136719 314.171875 C 241.40625 314.773438 240.707031 315.410156 240.035156 316.082031 C 239.367188 316.75 238.730469 317.453125 238.128906 318.183594 C 237.527344 318.917969 236.964844 319.675781 236.4375 320.464844 C 235.914062 321.253906 235.425781 322.066406 234.980469 322.902344 C 234.535156 323.734375 234.128906 324.589844 233.765625 325.46875 C 233.402344 326.34375 233.085938 327.234375 232.808594 328.140625 C 232.535156 329.046875 232.304688 329.964844 232.121094 330.894531 C 231.9375 331.824219 231.796875 332.757812 231.703125 333.703125 C 231.613281 334.644531 231.566406 335.589844 231.566406 336.539062 C 231.566406 337.484375 231.613281 338.429688 231.703125 339.375 C 231.796875 340.316406 231.9375 341.253906 232.121094 342.179688 C 232.304688 343.109375 232.535156 344.027344 232.808594 344.933594 C 233.085938 345.84375 233.402344 346.734375 233.765625 347.609375 C 234.128906 348.484375 234.535156 349.339844 234.980469 350.175781 C 235.425781 351.011719 235.914062 351.824219 236.4375 352.609375 C 236.964844 353.398438 237.527344 354.160156 238.128906 354.890625 C 238.730469 355.625 239.367188 356.324219 240.035156 356.996094 C 240.707031 357.664062 241.40625 358.300781 242.136719 358.902344 C 242.871094 359.503906 243.628906 360.066406 244.417969 360.59375 C 245.207031 361.121094 246.015625 361.605469 246.851562 362.054688 C 247.6875 362.5 248.542969 362.90625 249.417969 363.269531 C 250.292969 363.632812 251.183594 363.949219 252.089844 364.226562 C 252.996094 364.5 253.914062 364.730469 254.84375 364.917969 C 255.773438 365.101562 256.710938 365.242188 257.652344 365.335938 C 258.597656 365.429688 259.539062 365.476562 260.488281 365.476562 L 301 365.476562 L 301 377.050781 L 248.914062 377.050781 C 248.34375 377.050781 247.777344 377.082031 247.214844 377.136719 C 246.648438 377.195312 246.085938 377.28125 245.53125 377.390625 C 244.972656 377.503906 244.421875 377.644531 243.878906 377.808594 C 243.335938 377.976562 242.800781 378.167969 242.277344 378.386719 C 241.753906 378.605469 241.238281 378.847656 240.738281 379.117188 C 240.238281 379.382812 239.75 379.675781 239.28125 379.992188 C 238.808594 380.308594 238.351562 380.648438 237.914062 381.007812 C 237.472656 381.367188 237.054688 381.75 236.652344 382.152344 C 236.25 382.550781 235.867188 382.972656 235.507812 383.410156 C 235.148438 383.851562 234.808594 384.308594 234.492188 384.777344 C 234.175781 385.25 233.882812 385.738281 233.617188 386.238281 C 233.347656 386.738281 233.105469 387.25 232.886719 387.777344 C 232.667969 388.300781 232.476562 388.835938 232.308594 389.378906 C 232.144531 389.921875 232.003906 390.472656 231.894531 391.027344 C 231.78125 391.585938 231.695312 392.148438 231.640625 392.710938 C 231.582031 393.277344 231.550781 393.84375 231.550781 394.414062 L 231.550781 573.824219 C 231.550781 574.394531 231.582031 574.960938 231.640625 575.527344 C 231.695312 576.089844 231.78125 576.652344 231.894531 577.207031 C 232.003906 577.765625 232.144531 578.316406 232.308594 578.859375 C 232.476562 579.402344 232.667969 579.9375 232.886719 580.460938 C 233.105469 580.984375 233.347656 581.5 233.617188 582 C 233.882812 582.5 234.175781 582.988281 234.492188 583.460938 C 234.808594 583.929688 235.148438 584.386719 235.507812 584.824219 C 235.867188 585.265625 236.25 585.683594 236.652344 586.085938 C 237.054688 586.488281 237.472656 586.871094 237.914062 587.230469 C 238.351562 587.589844 238.808594 587.929688 239.28125 588.246094 C 239.75 588.5625 240.238281 588.855469 240.738281 589.121094 C 241.238281 589.390625 241.753906 589.632812 242.277344 589.851562 C 242.800781 590.070312 243.335938 590.261719 243.878906 590.429688 C 244.421875 590.59375 244.972656 590.734375 245.53125 590.84375 C 246.085938 590.957031 246.648438 591.042969 247.214844 591.097656 C 247.777344 591.15625 248.34375 591.1875 248.914062 591.1875 L 573.011719 591.1875 C 573.394531 591.1875 573.769531 591.152344 574.140625 591.078125 C 574.515625 591.003906 574.878906 590.894531 575.226562 590.746094 C 575.578125 590.601562 575.914062 590.421875 576.230469 590.210938 C 576.542969 590 576.835938 589.761719 577.105469 589.492188 C 577.375 589.222656 577.613281 588.929688 577.824219 588.617188 C 578.035156 588.300781 578.214844 587.964844 578.359375 587.613281 C 578.503906 587.265625 578.617188 586.902344 578.691406 586.53125 C 578.765625 586.15625 578.800781 585.78125 578.800781 585.398438 L 578.800781 307.601562 C 578.800781 306.785156 578.632812 306.003906 578.300781 305.257812 C 577.964844 304.511719 577.496094 303.863281 576.890625 303.316406 Z M 266.277344 353.898438 L 260.488281 353.898438 C 259.917969 353.898438 259.351562 353.871094 258.785156 353.816406 C 258.21875 353.761719 257.660156 353.675781 257.101562 353.566406 C 256.542969 353.457031 255.992188 353.316406 255.449219 353.152344 C 254.902344 352.988281 254.371094 352.796875 253.84375 352.578125 C 253.320312 352.359375 252.804688 352.117188 252.304688 351.851562 C 251.800781 351.582031 251.316406 351.289062 250.84375 350.972656 C 250.371094 350.660156 249.914062 350.320312 249.472656 349.960938 C 249.035156 349.597656 248.613281 349.21875 248.210938 348.816406 C 247.808594 348.414062 247.425781 347.992188 247.066406 347.550781 C 246.707031 347.113281 246.367188 346.65625 246.050781 346.183594 C 245.734375 345.710938 245.445312 345.222656 245.175781 344.722656 C 244.90625 344.222656 244.664062 343.707031 244.449219 343.183594 C 244.230469 342.65625 244.039062 342.121094 243.875 341.578125 C 243.707031 341.035156 243.570312 340.484375 243.460938 339.925781 C 243.347656 339.367188 243.265625 338.804688 243.210938 338.238281 C 243.152344 337.671875 243.125 337.105469 243.125 336.539062 C 243.125 335.96875 243.152344 335.402344 243.210938 334.835938 C 243.265625 334.269531 243.347656 333.707031 243.460938 333.152344 C 243.570312 332.59375 243.707031 332.042969 243.875 331.496094 C 244.039062 330.953125 244.230469 330.417969 244.449219 329.894531 C 244.664062 329.367188 244.90625 328.855469 245.175781 328.351562 C 245.445312 327.851562 245.734375 327.363281 246.050781 326.890625 C 246.367188 326.417969 246.707031 325.960938 247.066406 325.523438 C 247.425781 325.082031 247.808594 324.664062 248.210938 324.261719 C 248.613281 323.859375 249.035156 323.476562 249.472656 323.117188 C 249.914062 322.753906 250.371094 322.417969 250.84375 322.101562 C 251.316406 321.785156 251.800781 321.492188 252.304688 321.226562 C 252.804688 320.957031 253.320312 320.714844 253.84375 320.496094 C 254.371094 320.277344 254.902344 320.089844 255.449219 319.921875 C 255.992188 319.757812 256.542969 319.621094 257.101562 319.507812 C 257.660156 319.398438 258.21875 319.316406 258.785156 319.257812 C 259.351562 319.203125 259.917969 319.175781 260.488281 319.175781 L 266.277344 319.175781 Z M 515.136719 262.804688 L 558.023438 301.8125 L 515.136719 301.8125 Z M 277.851562 319.175781 L 474.625 319.175781 L 474.625 330.75 L 277.851562 330.75 Z M 468.839844 434.925781 L 468.839844 423.351562 L 544.074219 423.351562 L 544.074219 434.925781 Z M 544.074219 446.5 L 544.074219 458.074219 L 468.839844 458.074219 L 468.839844 446.5 Z M 468.839844 411.773438 L 468.839844 400.199219 L 544.074219 400.199219 L 544.074219 411.773438 Z M 468.839844 388.625 L 468.839844 365.476562 L 544.074219 365.476562 L 544.074219 388.625 Z M 277.851562 353.898438 L 277.851562 342.324219 L 474.625 342.324219 L 474.625 353.898438 Z M 376.238281 365.476562 L 376.238281 377.050781 L 335.726562 377.050781 L 335.726562 365.476562 Z M 324.152344 365.476562 L 324.152344 377.050781 L 312.574219 377.050781 L 312.574219 365.476562 Z M 393.601562 573.824219 C 393.601562 574.207031 393.5625 574.582031 393.488281 574.953125 C 393.414062 575.328125 393.304688 575.6875 393.160156 576.039062 C 393.015625 576.390625 392.835938 576.726562 392.625 577.039062 C 392.414062 577.355469 392.175781 577.648438 391.90625 577.917969 C 391.636719 578.1875 391.34375 578.425781 391.027344 578.636719 C 390.710938 578.847656 390.378906 579.027344 390.027344 579.171875 C 389.675781 579.316406 389.316406 579.425781 388.941406 579.5 C 388.570312 579.574219 388.195312 579.613281 387.8125 579.613281 L 248.914062 579.613281 C 248.535156 579.613281 248.15625 579.574219 247.785156 579.5 C 247.410156 579.425781 247.050781 579.316406 246.699219 579.171875 C 246.347656 579.027344 246.015625 578.847656 245.699219 578.636719 C 245.382812 578.425781 245.089844 578.1875 244.820312 577.917969 C 244.550781 577.648438 244.3125 577.355469 244.101562 577.039062 C 243.890625 576.726562 243.710938 576.390625 243.566406 576.039062 C 243.421875 575.6875 243.3125 575.328125 243.238281 574.953125 C 243.164062 574.582031 243.125 574.207031 243.125 573.824219 L 243.125 394.414062 C 243.125 394.03125 243.164062 393.65625 243.238281 393.285156 C 243.3125 392.910156 243.421875 392.550781 243.566406 392.199219 C 243.710938 391.847656 243.890625 391.511719 244.101562 391.199219 C 244.3125 390.882812 244.550781 390.589844 244.820312 390.320312 C 245.089844 390.050781 245.382812 389.8125 245.699219 389.601562 C 246.015625 389.390625 246.347656 389.210938 246.699219 389.066406 C 247.050781 388.921875 247.410156 388.8125 247.785156 388.738281 C 248.15625 388.664062 248.535156 388.625 248.914062 388.625 L 387.8125 388.625 C 388.195312 388.625 388.570312 388.664062 388.941406 388.738281 C 389.316406 388.8125 389.675781 388.921875 390.027344 389.066406 C 390.378906 389.210938 390.710938 389.390625 391.027344 389.601562 C 391.34375 389.8125 391.636719 390.050781 391.90625 390.320312 C 392.175781 390.589844 392.414062 390.882812 392.625 391.199219 C 392.835938 391.511719 393.015625 391.847656 393.160156 392.199219 C 393.304688 392.550781 393.414062 392.910156 393.488281 393.285156 C 393.5625 393.65625 393.601562 394.03125 393.601562 394.414062 Z M 387.8125 377.050781 L 387.8125 365.476562 L 457.261719 365.476562 L 457.261719 388.625 L 404.132812 388.625 C 403.835938 387.785156 403.476562 386.976562 403.050781 386.195312 C 402.628906 385.410156 402.148438 384.664062 401.613281 383.953125 C 401.074219 383.246094 400.488281 382.582031 399.847656 381.960938 C 399.210938 381.34375 398.527344 380.777344 397.800781 380.261719 C 397.074219 379.746094 396.316406 379.289062 395.519531 378.890625 C 394.722656 378.492188 393.902344 378.15625 393.054688 377.886719 C 392.207031 377.613281 391.34375 377.40625 390.464844 377.265625 C 389.585938 377.128906 388.703125 377.054688 387.8125 377.050781 Z M 405.175781 434.925781 L 405.175781 423.351562 L 457.261719 423.351562 L 457.261719 434.925781 Z M 457.261719 446.5 L 457.261719 458.074219 L 405.175781 458.074219 L 405.175781 446.5 Z M 405.175781 411.773438 L 405.175781 400.199219 L 457.261719 400.199219 L 457.261719 411.773438 Z M 567.226562 579.613281 L 404.132812 579.613281 C 404.8125 577.742188 405.160156 575.8125 405.175781 573.824219 L 405.175781 469.648438 L 549.863281 469.648438 C 550.242188 469.648438 550.621094 469.613281 550.992188 469.539062 C 551.363281 469.464844 551.726562 469.355469 552.078125 469.210938 C 552.429688 469.0625 552.761719 468.886719 553.078125 468.675781 C 553.394531 468.464844 553.6875 468.222656 553.957031 467.957031 C 554.222656 467.6875 554.464844 467.394531 554.675781 467.078125 C 554.886719 466.761719 555.066406 466.429688 555.210938 466.078125 C 555.355469 465.726562 555.464844 465.363281 555.539062 464.992188 C 555.613281 464.617188 555.652344 464.242188 555.652344 463.863281 L 555.652344 359.6875 C 555.652344 359.308594 555.613281 358.929688 555.539062 358.558594 C 555.464844 358.1875 555.355469 357.824219 555.210938 357.472656 C 555.066406 357.121094 554.886719 356.789062 554.675781 356.472656 C 554.464844 356.15625 554.222656 355.863281 553.957031 355.59375 C 553.6875 355.328125 553.394531 355.085938 553.078125 354.875 C 552.761719 354.664062 552.429688 354.484375 552.078125 354.339844 C 551.726562 354.195312 551.363281 354.085938 550.992188 354.011719 C 550.621094 353.9375 550.242188 353.898438 549.863281 353.898438 L 513.285156 353.898438 L 546.042969 341.976562 C 546.601562 341.773438 547.117188 341.492188 547.589844 341.132812 C 548.0625 340.769531 548.46875 340.347656 548.808594 339.859375 C 549.148438 339.371094 549.410156 338.847656 549.589844 338.28125 C 549.765625 337.710938 549.855469 337.132812 549.855469 336.539062 C 549.855469 335.945312 549.765625 335.363281 549.589844 334.796875 C 549.410156 334.230469 549.148438 333.703125 548.808594 333.214844 C 548.46875 332.730469 548.0625 332.304688 547.589844 331.945312 C 547.117188 331.582031 546.601562 331.300781 546.042969 331.097656 L 482.382812 307.949219 C 481.746094 307.714844 481.089844 307.597656 480.414062 307.601562 L 312.574219 307.601562 L 312.574219 255.511719 L 503.5625 255.511719 L 503.5625 307.601562 C 503.5625 307.980469 503.601562 308.355469 503.675781 308.730469 C 503.75 309.101562 503.859375 309.464844 504.003906 309.816406 C 504.148438 310.167969 504.328125 310.5 504.539062 310.816406 C 504.75 311.132812 504.988281 311.425781 505.257812 311.691406 C 505.527344 311.960938 505.820312 312.203125 506.136719 312.414062 C 506.453125 312.625 506.785156 312.800781 507.136719 312.945312 C 507.488281 313.09375 507.847656 313.203125 508.222656 313.277344 C 508.59375 313.351562 508.972656 313.386719 509.351562 313.386719 L 567.226562 313.386719 Z M 486.199219 351.410156 L 486.199219 321.664062 L 527.117188 336.539062 Z M 486.199219 351.410156 " fill-opacity="1" fill-rule="nonzero"/></g><path fill="#ffa229" d="M 376.238281 400.199219 L 260.488281 400.199219 C 260.109375 400.199219 259.730469 400.238281 259.359375 400.3125 C 258.988281 400.386719 258.625 400.496094 258.273438 400.640625 C 257.921875 400.785156 257.589844 400.964844 257.273438 401.175781 C 256.957031 401.386719 256.664062 401.625 256.394531 401.894531 C 256.128906 402.164062 255.886719 402.457031 255.675781 402.773438 C 255.464844 403.089844 255.285156 403.421875 255.140625 403.773438 C 254.996094 404.125 254.886719 404.484375 254.8125 404.859375 C 254.738281 405.230469 254.699219 405.609375 254.699219 405.988281 L 254.699219 434.925781 C 254.699219 435.304688 254.738281 435.683594 254.8125 436.054688 C 254.886719 436.425781 254.996094 436.789062 255.140625 437.140625 C 255.285156 437.492188 255.464844 437.824219 255.675781 438.140625 C 255.886719 438.457031 256.128906 438.75 256.394531 439.019531 C 256.664062 439.285156 256.957031 439.527344 257.273438 439.738281 C 257.589844 439.949219 257.921875 440.125 258.273438 440.273438 C 258.625 440.417969 258.988281 440.527344 259.359375 440.601562 C 259.730469 440.675781 260.109375 440.710938 260.488281 440.710938 L 376.238281 440.710938 C 376.617188 440.710938 376.996094 440.675781 377.367188 440.601562 C 377.738281 440.527344 378.101562 440.417969 378.453125 440.273438 C 378.804688 440.125 379.136719 439.949219 379.453125 439.738281 C 379.769531 439.527344 380.0625 439.285156 380.332031 439.019531 C 380.597656 438.75 380.839844 438.457031 381.050781 438.140625 C 381.261719 437.824219 381.441406 437.492188 381.585938 437.140625 C 381.730469 436.789062 381.839844 436.425781 381.914062 436.054688 C 381.988281 435.683594 382.027344 435.304688 382.027344 434.925781 L 382.027344 405.988281 C 382.027344 405.609375 381.988281 405.230469 381.914062 404.859375 C 381.839844 404.484375 381.730469 404.125 381.585938 403.773438 C 381.441406 403.421875 381.261719 403.089844 381.050781 402.773438 C 380.839844 402.457031 380.597656 402.164062 380.332031 401.894531 C 380.0625 401.625 379.769531 401.386719 379.453125 401.175781 C 379.136719 400.964844 378.804688 400.785156 378.453125 400.640625 C 378.101562 400.496094 377.738281 400.386719 377.367188 400.3125 C 376.996094 400.238281 376.617188 400.199219 376.238281 400.199219 Z M 370.449219 429.136719 L 266.277344 429.136719 L 266.277344 411.773438 L 370.449219 411.773438 Z M 370.449219 429.136719 " fill-opacity="1" fill-rule="nonzero"/><path fill="#ffa229" d="M 283.636719 452.289062 L 260.488281 452.289062 C 260.109375 452.289062 259.730469 452.324219 259.359375 452.398438 C 258.988281 452.472656 258.625 452.582031 258.273438 452.726562 C 257.921875 452.875 257.589844 453.050781 257.273438 453.261719 C 256.957031 453.472656 256.664062 453.714844 256.394531 453.984375 C 256.128906 454.25 255.886719 454.542969 255.675781 454.859375 C 255.464844 455.175781 255.285156 455.507812 255.140625 455.859375 C 254.996094 456.210938 254.886719 456.574219 254.8125 456.945312 C 254.738281 457.320312 254.699219 457.695312 254.699219 458.074219 L 254.699219 481.226562 C 254.699219 481.605469 254.738281 481.980469 254.8125 482.355469 C 254.886719 482.726562 254.996094 483.089844 255.140625 483.441406 C 255.285156 483.792969 255.464844 484.125 255.675781 484.441406 C 255.886719 484.757812 256.128906 485.050781 256.394531 485.316406 C 256.664062 485.585938 256.957031 485.828125 257.273438 486.039062 C 257.589844 486.25 257.921875 486.425781 258.273438 486.570312 C 258.625 486.71875 258.988281 486.828125 259.359375 486.902344 C 259.730469 486.976562 260.109375 487.011719 260.488281 487.011719 L 283.636719 487.011719 C 284.019531 487.011719 284.394531 486.976562 284.765625 486.902344 C 285.140625 486.828125 285.503906 486.71875 285.851562 486.570312 C 286.203125 486.425781 286.539062 486.25 286.855469 486.039062 C 287.167969 485.828125 287.460938 485.585938 287.730469 485.316406 C 288 485.050781 288.238281 484.757812 288.449219 484.441406 C 288.660156 484.125 288.839844 483.792969 288.984375 483.441406 C 289.128906 483.089844 289.242188 482.726562 289.316406 482.355469 C 289.390625 481.980469 289.425781 481.605469 289.425781 481.226562 L 289.425781 458.074219 C 289.425781 457.695312 289.390625 457.320312 289.316406 456.945312 C 289.242188 456.574219 289.128906 456.210938 288.984375 455.859375 C 288.839844 455.507812 288.660156 455.175781 288.449219 454.859375 C 288.238281 454.542969 288 454.25 287.730469 453.984375 C 287.460938 453.714844 287.167969 453.472656 286.855469 453.261719 C 286.539062 453.050781 286.203125 452.875 285.851562 452.726562 C 285.503906 452.582031 285.140625 452.472656 284.765625 452.398438 C 284.394531 452.324219 284.019531 452.289062 283.636719 452.289062 Z M 277.851562 475.4375 L 266.277344 475.4375 L 266.277344 463.863281 L 277.851562 463.863281 Z M 277.851562 475.4375 " fill-opacity="1" fill-rule="nonzero"/><path fill="#ffa229" d="M 283.636719 492.800781 L 260.488281 492.800781 C 260.109375 492.800781 259.730469 492.835938 259.359375 492.910156 C 258.988281 492.984375 258.625 493.09375 258.273438 493.242188 C 257.921875 493.386719 257.589844 493.566406 257.273438 493.777344 C 256.957031 493.988281 256.664062 494.226562 256.394531 494.496094 C 256.128906 494.765625 255.886719 495.054688 255.675781 495.371094 C 255.464844 495.6875 255.285156 496.023438 255.140625 496.371094 C 254.996094 496.722656 254.886719 497.085938 254.8125 497.457031 C 254.738281 497.832031 254.699219 498.207031 254.699219 498.585938 L 254.699219 521.738281 C 254.699219 522.117188 254.738281 522.492188 254.8125 522.867188 C 254.886719 523.238281 254.996094 523.601562 255.140625 523.953125 C 255.285156 524.304688 255.464844 524.636719 255.675781 524.953125 C 255.886719 525.269531 256.128906 525.5625 256.394531 525.832031 C 256.664062 526.097656 256.957031 526.339844 257.273438 526.550781 C 257.589844 526.761719 257.921875 526.9375 258.273438 527.085938 C 258.625 527.230469 258.988281 527.339844 259.359375 527.414062 C 259.730469 527.488281 260.109375 527.523438 260.488281 527.523438 L 283.636719 527.523438 C 284.019531 527.523438 284.394531 527.488281 284.765625 527.414062 C 285.140625 527.339844 285.503906 527.230469 285.851562 527.085938 C 286.203125 526.9375 286.539062 526.761719 286.855469 526.550781 C 287.167969 526.339844 287.460938 526.097656 287.730469 525.832031 C 288 525.5625 288.238281 525.269531 288.449219 524.953125 C 288.660156 524.636719 288.839844 524.304688 288.984375 523.953125 C 289.128906 523.601562 289.242188 523.238281 289.316406 522.867188 C 289.390625 522.492188 289.425781 522.117188 289.425781 521.738281 L 289.425781 498.585938 C 289.425781 498.207031 289.390625 497.832031 289.316406 497.457031 C 289.242188 497.085938 289.128906 496.722656 288.984375 496.371094 C 288.839844 496.023438 288.660156 495.6875 288.449219 495.371094 C 288.238281 495.054688 288 494.765625 287.730469 494.496094 C 287.460938 494.226562 287.167969 493.988281 286.855469 493.777344 C 286.539062 493.566406 286.203125 493.386719 285.851562 493.242188 C 285.503906 493.09375 285.140625 492.984375 284.765625 492.910156 C 284.394531 492.835938 284.019531 492.800781 283.636719 492.800781 Z M 277.851562 515.949219 L 266.277344 515.949219 L 266.277344 504.375 L 277.851562 504.375 Z M 277.851562 515.949219 " fill-opacity="1" fill-rule="nonzero"/><path fill="#ffa229" d="M 283.636719 533.3125 L 260.488281 533.3125 C 260.109375 533.3125 259.730469 533.351562 259.359375 533.425781 C 258.988281 533.5 258.625 533.609375 258.273438 533.753906 C 257.921875 533.898438 257.589844 534.078125 257.273438 534.289062 C 256.957031 534.5 256.664062 534.738281 256.394531 535.007812 C 256.128906 535.277344 255.886719 535.570312 255.675781 535.886719 C 255.464844 536.199219 255.285156 536.535156 255.140625 536.886719 C 254.996094 537.238281 254.886719 537.597656 254.8125 537.972656 C 254.738281 538.34375 254.699219 538.71875 254.699219 539.101562 L 254.699219 562.25 C 254.699219 562.628906 254.738281 563.007812 254.8125 563.378906 C 254.886719 563.753906 254.996094 564.113281 255.140625 564.464844 C 255.285156 564.816406 255.464844 565.148438 255.675781 565.464844 C 255.886719 565.78125 256.128906 566.074219 256.394531 566.34375 C 256.664062 566.609375 256.957031 566.851562 257.273438 567.0625 C 257.589844 567.273438 257.921875 567.453125 258.273438 567.597656 C 258.625 567.742188 258.988281 567.851562 259.359375 567.925781 C 259.730469 568 260.109375 568.039062 260.488281 568.039062 L 283.636719 568.039062 C 284.019531 568.039062 284.394531 568 284.765625 567.925781 C 285.140625 567.851562 285.503906 567.742188 285.851562 567.597656 C 286.203125 567.453125 286.539062 567.273438 286.855469 567.0625 C 287.167969 566.851562 287.460938 566.609375 287.730469 566.34375 C 288 566.074219 288.238281 565.78125 288.449219 565.464844 C 288.660156 565.148438 288.839844 564.816406 288.984375 564.464844 C 289.128906 564.113281 289.242188 563.753906 289.316406 563.378906 C 289.390625 563.007812 289.425781 562.628906 289.425781 562.25 L 289.425781 539.101562 C 289.425781 538.71875 289.390625 538.34375 289.316406 537.972656 C 289.242188 537.597656 289.128906 537.238281 288.984375 536.886719 C 288.839844 536.535156 288.660156 536.199219 288.449219 535.886719 C 288.238281 535.570312 288 535.277344 287.730469 535.007812 C 287.460938 534.738281 287.167969 534.5 286.855469 534.289062 C 286.539062 534.078125 286.203125 533.898438 285.851562 533.753906 C 285.503906 533.609375 285.140625 533.5 284.765625 533.425781 C 284.394531 533.351562 284.019531 533.3125 283.636719 533.3125 Z M 277.851562 556.460938 L 266.277344 556.460938 L 266.277344 544.886719 L 277.851562 544.886719 Z M 277.851562 556.460938 " fill-opacity="1" fill-rule="nonzero"/><path fill="#ffa229" d="M 329.9375 452.289062 L 306.789062 452.289062 C 306.410156 452.289062 306.03125 452.324219 305.660156 452.398438 C 305.285156 452.472656 304.925781 452.582031 304.574219 452.726562 C 304.222656 452.875 303.890625 453.050781 303.574219 453.261719 C 303.257812 453.472656 302.964844 453.714844 302.695312 453.984375 C 302.425781 454.25 302.1875 454.542969 301.976562 454.859375 C 301.765625 455.175781 301.585938 455.507812 301.441406 455.859375 C 301.296875 456.210938 301.1875 456.574219 301.113281 456.945312 C 301.039062 457.320312 301 457.695312 301 458.074219 L 301 481.226562 C 301 481.605469 301.039062 481.980469 301.113281 482.355469 C 301.1875 482.726562 301.296875 483.089844 301.441406 483.441406 C 301.585938 483.792969 301.765625 484.125 301.976562 484.441406 C 302.1875 484.757812 302.425781 485.050781 302.695312 485.316406 C 302.964844 485.585938 303.257812 485.828125 303.574219 486.039062 C 303.890625 486.25 304.222656 486.425781 304.574219 486.570312 C 304.925781 486.71875 305.285156 486.828125 305.660156 486.902344 C 306.03125 486.976562 306.410156 487.011719 306.789062 487.011719 L 329.9375 487.011719 C 330.320312 487.011719 330.695312 486.976562 331.066406 486.902344 C 331.441406 486.828125 331.800781 486.71875 332.152344 486.570312 C 332.503906 486.425781 332.835938 486.25 333.152344 486.039062 C 333.46875 485.828125 333.761719 485.585938 334.03125 485.316406 C 334.300781 485.050781 334.539062 484.757812 334.75 484.441406 C 334.960938 484.125 335.140625 483.792969 335.285156 483.441406 C 335.429688 483.089844 335.539062 482.726562 335.613281 482.355469 C 335.6875 481.980469 335.726562 481.605469 335.726562 481.226562 L 335.726562 458.074219 C 335.726562 457.695312 335.6875 457.320312 335.613281 456.945312 C 335.539062 456.574219 335.429688 456.210938 335.285156 455.859375 C 335.140625 455.507812 334.960938 455.175781 334.75 454.859375 C 334.539062 454.542969 334.300781 454.25 334.03125 453.984375 C 333.761719 453.714844 333.46875 453.472656 333.152344 453.261719 C 332.835938 453.050781 332.503906 452.875 332.152344 452.726562 C 331.800781 452.582031 331.441406 452.472656 331.066406 452.398438 C 330.695312 452.324219 330.320312 452.289062 329.9375 452.289062 Z M 324.152344 475.4375 L 312.574219 475.4375 L 312.574219 463.863281 L 324.152344 463.863281 Z M 324.152344 475.4375 " fill-opacity="1" fill-rule="nonzero"/><path fill="#ffa229" d="M 329.9375 492.800781 L 306.789062 492.800781 C 306.410156 492.800781 306.03125 492.835938 305.660156 492.910156 C 305.285156 492.984375 304.925781 493.09375 304.574219 493.242188 C 304.222656 493.386719 303.890625 493.566406 303.574219 493.777344 C 303.257812 493.988281 302.964844 494.226562 302.695312 494.496094 C 302.425781 494.765625 302.1875 495.054688 301.976562 495.371094 C 301.765625 495.6875 301.585938 496.023438 301.441406 496.371094 C 301.296875 496.722656 301.1875 497.085938 301.113281 497.457031 C 301.039062 497.832031 301 498.207031 301 498.585938 L 301 521.738281 C 301 522.117188 301.039062 522.492188 301.113281 522.867188 C 301.1875 523.238281 301.296875 523.601562 301.441406 523.953125 C 301.585938 524.304688 301.765625 524.636719 301.976562 524.953125 C 302.1875 525.269531 302.425781 525.5625 302.695312 525.832031 C 302.964844 526.097656 303.257812 526.339844 303.574219 526.550781 C 303.890625 526.761719 304.222656 526.9375 304.574219 527.085938 C 304.925781 527.230469 305.285156 527.339844 305.660156 527.414062 C 306.03125 527.488281 306.410156 527.523438 306.789062 527.523438 L 329.9375 527.523438 C 330.320312 527.523438 330.695312 527.488281 331.066406 527.414062 C 331.441406 527.339844 331.800781 527.230469 332.152344 527.085938 C 332.503906 526.9375 332.835938 526.761719 333.152344 526.550781 C 333.46875 526.339844 333.761719 526.097656 334.03125 525.832031 C 334.300781 525.5625 334.539062 525.269531 334.75 524.953125 C 334.960938 524.636719 335.140625 524.304688 335.285156 523.953125 C 335.429688 523.601562 335.539062 523.238281 335.613281 522.867188 C 335.6875 522.492188 335.726562 522.117188 335.726562 521.738281 L 335.726562 498.585938 C 335.726562 498.207031 335.6875 497.832031 335.613281 497.457031 C 335.539062 497.085938 335.429688 496.722656 335.285156 496.371094 C 335.140625 496.023438 334.960938 495.6875 334.75 495.371094 C 334.539062 495.054688 334.300781 494.765625 334.03125 494.496094 C 333.761719 494.226562 333.46875 493.988281 333.152344 493.777344 C 332.835938 493.566406 332.503906 493.386719 332.152344 493.242188 C 331.800781 493.09375 331.441406 492.984375 331.066406 492.910156 C 330.695312 492.835938 330.320312 492.800781 329.9375 492.800781 Z M 324.152344 515.949219 L 312.574219 515.949219 L 312.574219 504.375 L 324.152344 504.375 Z M 324.152344 515.949219 " fill-opacity="1" fill-rule="nonzero"/><path fill="#ffa229" d="M 329.9375 533.3125 L 306.789062 533.3125 C 306.410156 533.3125 306.03125 533.351562 305.660156 533.425781 C 305.285156 533.5 304.925781 533.609375 304.574219 533.753906 C 304.222656 533.898438 303.890625 534.078125 303.574219 534.289062 C 303.257812 534.5 302.964844 534.738281 302.695312 535.007812 C 302.425781 535.277344 302.1875 535.570312 301.976562 535.886719 C 301.765625 536.199219 301.585938 536.535156 301.441406 536.886719 C 301.296875 537.238281 301.1875 537.597656 301.113281 537.972656 C 301.039062 538.34375 301 538.71875 301 539.101562 L 301 562.25 C 301 562.628906 301.039062 563.007812 301.113281 563.378906 C 301.1875 563.753906 301.296875 564.113281 301.441406 564.464844 C 301.585938 564.816406 301.765625 565.148438 301.976562 565.464844 C 302.1875 565.78125 302.425781 566.074219 302.695312 566.34375 C 302.964844 566.609375 303.257812 566.851562 303.574219 567.0625 C 303.890625 567.273438 304.222656 567.453125 304.574219 567.597656 C 304.925781 567.742188 305.285156 567.851562 305.660156 567.925781 C 306.03125 568 306.410156 568.039062 306.789062 568.039062 L 329.9375 568.039062 C 330.320312 568.039062 330.695312 568 331.066406 567.925781 C 331.441406 567.851562 331.800781 567.742188 332.152344 567.597656 C 332.503906 567.453125 332.835938 567.273438 333.152344 567.0625 C 333.46875 566.851562 333.761719 566.609375 334.03125 566.34375 C 334.300781 566.074219 334.539062 565.78125 334.75 565.464844 C 334.960938 565.148438 335.140625 564.816406 335.285156 564.464844 C 335.429688 564.113281 335.539062 563.753906 335.613281 563.378906 C 335.6875 563.007812 335.726562 562.628906 335.726562 562.25 L 335.726562 539.101562 C 335.726562 538.71875 335.6875 538.34375 335.613281 537.972656 C 335.539062 537.597656 335.429688 537.238281 335.285156 536.886719 C 335.140625 536.535156 334.960938 536.199219 334.75 535.886719 C 334.539062 535.570312 334.300781 535.277344 334.03125 535.007812 C 333.761719 534.738281 333.46875 534.5 333.152344 534.289062 C 332.835938 534.078125 332.503906 533.898438 332.152344 533.753906 C 331.800781 533.609375 331.441406 533.5 331.066406 533.425781 C 330.695312 533.351562 330.320312 533.3125 329.9375 533.3125 Z M 324.152344 556.460938 L 312.574219 556.460938 L 312.574219 544.886719 L 324.152344 544.886719 Z M 324.152344 556.460938 " fill-opacity="1" fill-rule="nonzero"/><path fill="#ffa229" d="M 376.238281 452.289062 L 353.089844 452.289062 C 352.707031 452.289062 352.332031 452.324219 351.960938 452.398438 C 351.585938 452.472656 351.226562 452.582031 350.875 452.726562 C 350.523438 452.875 350.1875 453.050781 349.871094 453.261719 C 349.558594 453.472656 349.265625 453.714844 348.996094 453.984375 C 348.726562 454.25 348.488281 454.542969 348.277344 454.859375 C 348.066406 455.175781 347.886719 455.507812 347.742188 455.859375 C 347.597656 456.210938 347.484375 456.574219 347.410156 456.945312 C 347.339844 457.320312 347.300781 457.695312 347.300781 458.074219 L 347.300781 481.226562 C 347.300781 481.605469 347.339844 481.980469 347.410156 482.355469 C 347.484375 482.726562 347.597656 483.089844 347.742188 483.441406 C 347.886719 483.792969 348.066406 484.125 348.277344 484.441406 C 348.488281 484.757812 348.726562 485.050781 348.996094 485.316406 C 349.265625 485.585938 349.558594 485.828125 349.871094 486.039062 C 350.1875 486.25 350.523438 486.425781 350.875 486.570312 C 351.226562 486.71875 351.585938 486.828125 351.960938 486.902344 C 352.332031 486.976562 352.707031 487.011719 353.089844 487.011719 L 376.238281 487.011719 C 376.617188 487.011719 376.996094 486.976562 377.367188 486.902344 C 377.738281 486.828125 378.101562 486.71875 378.453125 486.570312 C 378.804688 486.425781 379.136719 486.25 379.453125 486.039062 C 379.769531 485.828125 380.0625 485.585938 380.332031 485.316406 C 380.597656 485.050781 380.839844 484.757812 381.050781 484.441406 C 381.261719 484.125 381.441406 483.792969 381.585938 483.441406 C 381.730469 483.089844 381.839844 482.726562 381.914062 482.355469 C 381.988281 481.980469 382.027344 481.605469 382.027344 481.226562 L 382.027344 458.074219 C 382.027344 457.695312 381.988281 457.320312 381.914062 456.945312 C 381.839844 456.574219 381.730469 456.210938 381.585938 455.859375 C 381.441406 455.507812 381.261719 455.175781 381.050781 454.859375 C 380.839844 454.542969 380.597656 454.25 380.332031 453.984375 C 380.0625 453.714844 379.769531 453.472656 379.453125 453.261719 C 379.136719 453.050781 378.804688 452.875 378.453125 452.726562 C 378.101562 452.582031 377.738281 452.472656 377.367188 452.398438 C 376.996094 452.324219 376.617188 452.289062 376.238281 452.289062 Z M 370.449219 475.4375 L 358.875 475.4375 L 358.875 463.863281 L 370.449219 463.863281 Z M 370.449219 475.4375 " fill-opacity="1" fill-rule="nonzero"/><path fill="#ffa229" d="M 376.238281 492.800781 L 353.089844 492.800781 C 352.707031 492.800781 352.332031 492.835938 351.960938 492.910156 C 351.585938 492.984375 351.226562 493.09375 350.875 493.242188 C 350.523438 493.386719 350.1875 493.566406 349.871094 493.777344 C 349.558594 493.988281 349.265625 494.226562 348.996094 494.496094 C 348.726562 494.765625 348.488281 495.054688 348.277344 495.371094 C 348.066406 495.6875 347.886719 496.023438 347.742188 496.371094 C 347.597656 496.722656 347.484375 497.085938 347.410156 497.457031 C 347.339844 497.832031 347.300781 498.207031 347.300781 498.585938 L 347.300781 562.25 C 347.300781 562.628906 347.339844 563.007812 347.410156 563.378906 C 347.484375 563.753906 347.597656 564.113281 347.742188 564.464844 C 347.886719 564.816406 348.066406 565.148438 348.277344 565.464844 C 348.488281 565.78125 348.726562 566.074219 348.996094 566.34375 C 349.265625 566.609375 349.558594 566.851562 349.871094 567.0625 C 350.1875 567.273438 350.523438 567.453125 350.875 567.597656 C 351.226562 567.742188 351.585938 567.851562 351.960938 567.925781 C 352.332031 568 352.707031 568.039062 353.089844 568.039062 L 376.238281 568.039062 C 376.617188 568.039062 376.996094 568 377.367188 567.925781 C 377.738281 567.851562 378.101562 567.742188 378.453125 567.597656 C 378.804688 567.453125 379.136719 567.273438 379.453125 567.0625 C 379.769531 566.851562 380.0625 566.609375 380.332031 566.34375 C 380.597656 566.074219 380.839844 565.78125 381.050781 565.464844 C 381.261719 565.148438 381.441406 564.816406 381.585938 564.464844 C 381.730469 564.113281 381.839844 563.753906 381.914062 563.378906 C 381.988281 563.007812 382.027344 562.628906 382.027344 562.25 L 382.027344 498.585938 C 382.027344 498.207031 381.988281 497.832031 381.914062 497.457031 C 381.839844 497.085938 381.730469 496.722656 381.585938 496.371094 C 381.441406 496.023438 381.261719 495.6875 381.050781 495.371094 C 380.839844 495.054688 380.597656 494.765625 380.332031 494.496094 C 380.0625 494.226562 379.769531 493.988281 379.453125 493.777344 C 379.136719 493.566406 378.804688 493.386719 378.453125 493.242188 C 378.101562 493.09375 377.738281 492.984375 377.367188 492.910156 C 376.996094 492.835938 376.617188 492.800781 376.238281 492.800781 Z M 370.449219 556.460938 L 358.875 556.460938 L 358.875 504.375 L 370.449219 504.375 Z M 370.449219 556.460938 " fill-opacity="1" fill-rule="nonzero"/><g clip-path="url(#54699bc88d)"><path fill="#1c4670" d="M 405.015625 388.550781 L 511.484375 388.550781 L 511.484375 399.800781 L 405.015625 399.800781 L 405.015625 388.550781 " fill-opacity="1" fill-rule="nonzero"/></g><g clip-path="url(#e7efbb4a8b)"><path fill="#1c4670" d="M 405.015625 411.707031 L 511.484375 411.707031 L 511.484375 422.957031 L 405.015625 422.957031 L 405.015625 411.707031 " fill-opacity="1" fill-rule="nonzero"/></g><g clip-path="url(#567695156d)"><path fill="#1c4670" d="M 405.015625 435.066406 L 511.484375 435.066406 L 511.484375 447.066406 L 405.015625 447.066406 L 405.015625 435.066406 " fill-opacity="1" fill-rule="nonzero"/></g><g clip-path="url(#e5f7bd59ae)"><path fill="#1c4670" d="M 405.015625 457.945312 L 511.484375 457.945312 L 511.484375 469.945312 L 405.015625 469.945312 L 405.015625 457.945312 " fill-opacity="1" fill-rule="nonzero"/></g><g clip-path="url(#88089a0436)"><path fill="#1c4670" d="M 405.015625 579.207031 L 511.484375 579.207031 L 511.484375 591.207031 L 405.015625 591.207031 L 405.015625 579.207031 " fill-opacity="1" fill-rule="nonzero"/></g></svg>