<svg xmlns="http://www.w3.org/2000/svg" xmlns:xlink="http://www.w3.org/1999/xlink" width="1080" zoomAndPan="magnify" viewBox="0 0 810 809.999993" height="1080" preserveAspectRatio="xMidYMid meet" version="1.0"><defs><clipPath id="69a7cbe26a"><path d="M 231.289062 272.898438 L 530.539062 272.898438 L 530.539062 561.648438 L 231.289062 561.648438 Z M 231.289062 272.898438 " clip-rule="nonzero"/></clipPath><clipPath id="e2a0d0e0f5"><path d="M 451.484375 396.617188 L 578.234375 396.617188 L 578.234375 523.367188 L 451.484375 523.367188 Z M 451.484375 396.617188 " clip-rule="nonzero"/></clipPath><clipPath id="6745f9156e"><path d="M 447.445312 392.035156 L 583.195312 392.035156 L 583.195312 527.785156 L 447.445312 527.785156 Z M 447.445312 392.035156 " clip-rule="nonzero"/></clipPath></defs><g clip-path="url(#69a7cbe26a)"><path fill="#1c4670" d="M 525.6875 552.019531 L 512.277344 552.019531 L 512.277344 363.199219 C 512.277344 360.546875 510.125 358.394531 507.46875 358.394531 L 385.726562 358.394531 L 385.726562 277.703125 C 385.726562 275.050781 383.570312 272.898438 380.914062 272.898438 L 254.355469 272.898438 C 251.699219 272.898438 249.546875 275.050781 249.546875 277.703125 L 249.546875 552.019531 L 236.144531 552.019531 C 233.488281 552.019531 231.335938 554.171875 231.335938 556.828125 C 231.335938 559.480469 233.488281 561.632812 236.144531 561.632812 L 525.695312 561.632812 C 528.351562 561.632812 530.503906 559.480469 530.503906 556.828125 C 530.496094 554.171875 528.34375 552.019531 525.6875 552.019531 Z M 259.164062 282.511719 L 376.105469 282.511719 L 376.105469 552.027344 L 259.164062 552.027344 Z M 385.726562 552.019531 L 385.726562 368.007812 L 502.667969 368.007812 L 502.667969 552.019531 Z M 305.863281 499.015625 L 282.886719 499.015625 C 280.234375 499.015625 278.078125 501.171875 278.078125 503.824219 L 278.078125 528.558594 C 278.078125 531.210938 280.234375 533.363281 282.886719 533.363281 L 305.863281 533.363281 C 308.519531 533.363281 310.671875 531.210938 310.671875 528.558594 L 310.671875 503.824219 C 310.671875 501.171875 308.519531 499.015625 305.863281 499.015625 Z M 301.054688 523.75 L 287.695312 523.75 L 287.695312 508.628906 L 301.054688 508.628906 Z M 305.863281 301.167969 L 282.886719 301.167969 C 280.234375 301.167969 278.078125 303.320312 278.078125 305.972656 L 278.078125 330.707031 C 278.078125 333.363281 280.234375 335.515625 282.886719 335.515625 L 305.863281 335.515625 C 308.519531 335.515625 310.671875 333.363281 310.671875 330.707031 L 310.671875 305.972656 C 310.671875 303.320312 308.519531 301.167969 305.863281 301.167969 Z M 301.054688 325.902344 L 287.695312 325.902344 L 287.695312 310.78125 L 301.054688 310.78125 Z M 352.390625 400.097656 L 329.414062 400.097656 C 326.761719 400.097656 324.605469 402.25 324.605469 404.902344 L 324.605469 429.636719 C 324.605469 432.289062 326.761719 434.441406 329.414062 434.441406 L 352.390625 434.441406 C 355.046875 434.441406 357.199219 432.289062 357.199219 429.636719 L 357.199219 404.902344 C 357.199219 402.25 355.046875 400.097656 352.390625 400.097656 Z M 347.582031 424.824219 L 334.222656 424.824219 L 334.222656 409.703125 L 347.582031 409.703125 Z M 305.863281 350.628906 L 282.886719 350.628906 C 280.234375 350.628906 278.078125 352.78125 278.078125 355.433594 L 278.078125 380.167969 C 278.078125 382.820312 280.234375 384.976562 282.886719 384.976562 L 305.863281 384.976562 C 308.519531 384.976562 310.671875 382.820312 310.671875 380.167969 L 310.671875 355.433594 C 310.671875 352.78125 308.519531 350.628906 305.863281 350.628906 Z M 301.054688 375.363281 L 287.695312 375.363281 L 287.695312 360.242188 L 301.054688 360.242188 Z M 305.863281 449.558594 L 282.886719 449.558594 C 280.234375 449.558594 278.078125 451.710938 278.078125 454.363281 L 278.078125 479.097656 C 278.078125 481.75 280.234375 483.902344 282.886719 483.902344 L 305.863281 483.902344 C 308.519531 483.902344 310.671875 481.75 310.671875 479.097656 L 310.671875 454.363281 C 310.671875 451.710938 308.519531 449.558594 305.863281 449.558594 Z M 301.054688 474.289062 L 287.695312 474.289062 L 287.695312 459.167969 L 301.054688 459.167969 Z M 305.863281 400.097656 L 282.886719 400.097656 C 280.234375 400.097656 278.078125 402.25 278.078125 404.902344 L 278.078125 429.636719 C 278.078125 432.289062 280.234375 434.441406 282.886719 434.441406 L 305.863281 434.441406 C 308.519531 434.441406 310.671875 432.289062 310.671875 429.636719 L 310.671875 404.902344 C 310.671875 402.25 308.519531 400.097656 305.863281 400.097656 Z M 301.054688 424.824219 L 287.695312 424.824219 L 287.695312 409.703125 L 301.054688 409.703125 Z M 352.390625 449.558594 L 329.414062 449.558594 C 326.761719 449.558594 324.605469 451.710938 324.605469 454.363281 L 324.605469 479.097656 C 324.605469 481.75 326.761719 483.902344 329.414062 483.902344 L 352.390625 483.902344 C 355.046875 483.902344 357.199219 481.75 357.199219 479.097656 L 357.199219 454.363281 C 357.199219 451.710938 355.046875 449.558594 352.390625 449.558594 Z M 347.582031 474.289062 L 334.222656 474.289062 L 334.222656 459.167969 L 347.582031 459.167969 Z M 352.390625 350.628906 L 329.414062 350.628906 C 326.761719 350.628906 324.605469 352.78125 324.605469 355.433594 L 324.605469 380.167969 C 324.605469 382.820312 326.761719 384.976562 329.414062 384.976562 L 352.390625 384.976562 C 355.046875 384.976562 357.199219 382.820312 357.199219 380.167969 L 357.199219 355.433594 C 357.199219 352.78125 355.046875 350.628906 352.390625 350.628906 Z M 347.582031 375.363281 L 334.222656 375.363281 L 334.222656 360.242188 L 347.582031 360.242188 Z M 352.390625 301.167969 L 329.414062 301.167969 C 326.761719 301.167969 324.605469 303.320312 324.605469 305.972656 L 324.605469 330.707031 C 324.605469 333.363281 326.761719 335.515625 329.414062 335.515625 L 352.390625 335.515625 C 355.046875 335.515625 357.199219 333.363281 357.199219 330.707031 L 357.199219 305.972656 C 357.199219 303.320312 355.046875 301.167969 352.390625 301.167969 Z M 347.582031 325.902344 L 334.222656 325.902344 L 334.222656 310.78125 L 347.582031 310.78125 Z M 352.390625 499.015625 L 329.414062 499.015625 C 326.761719 499.015625 324.605469 501.171875 324.605469 503.824219 L 324.605469 528.558594 C 324.605469 531.210938 326.761719 533.363281 329.414062 533.363281 L 352.390625 533.363281 C 355.046875 533.363281 357.199219 531.210938 357.199219 528.558594 L 357.199219 503.824219 C 357.199219 501.171875 355.046875 499.015625 352.390625 499.015625 Z M 347.582031 523.75 L 334.222656 523.75 L 334.222656 508.628906 L 347.582031 508.628906 Z M 478.945312 442.84375 L 455.96875 442.84375 C 453.3125 442.84375 451.160156 444.996094 451.160156 447.652344 L 451.160156 472.382812 C 451.160156 475.039062 453.3125 477.191406 455.96875 477.191406 L 478.945312 477.191406 C 481.597656 477.191406 483.753906 475.039062 483.753906 472.382812 L 483.753906 447.652344 C 483.753906 444.996094 481.597656 442.84375 478.945312 442.84375 Z M 474.132812 467.578125 L 460.777344 467.578125 L 460.777344 452.457031 L 474.132812 452.457031 Z M 478.945312 393.382812 L 455.96875 393.382812 C 453.3125 393.382812 451.160156 395.535156 451.160156 398.191406 L 451.160156 422.925781 C 451.160156 425.578125 453.3125 427.730469 455.96875 427.730469 L 478.945312 427.730469 C 481.597656 427.730469 483.753906 425.578125 483.753906 422.925781 L 483.753906 398.191406 C 483.753906 395.535156 481.597656 393.382812 478.945312 393.382812 Z M 474.132812 418.109375 L 460.777344 418.109375 L 460.777344 402.988281 L 474.132812 402.988281 Z M 478.945312 492.304688 L 455.96875 492.304688 C 453.3125 492.304688 451.160156 494.457031 451.160156 497.109375 L 451.160156 521.84375 C 451.160156 524.5 453.3125 526.652344 455.96875 526.652344 L 478.945312 526.652344 C 481.597656 526.652344 483.753906 524.5 483.753906 521.84375 L 483.753906 497.109375 C 483.753906 494.457031 481.597656 492.304688 478.945312 492.304688 Z M 474.132812 517.039062 L 460.777344 517.039062 L 460.777344 501.917969 L 474.132812 501.917969 Z M 432.425781 492.304688 L 409.449219 492.304688 C 406.792969 492.304688 404.640625 494.457031 404.640625 497.109375 L 404.640625 521.84375 C 404.640625 524.5 406.792969 526.652344 409.449219 526.652344 L 432.425781 526.652344 C 435.078125 526.652344 437.234375 524.5 437.234375 521.84375 L 437.234375 497.109375 C 437.234375 494.457031 435.078125 492.304688 432.425781 492.304688 Z M 427.613281 517.039062 L 414.257812 517.039062 L 414.257812 501.917969 L 427.613281 501.917969 Z M 432.425781 442.84375 L 409.449219 442.84375 C 406.792969 442.84375 404.640625 444.996094 404.640625 447.652344 L 404.640625 472.382812 C 404.640625 475.039062 406.792969 477.191406 409.449219 477.191406 L 432.425781 477.191406 C 435.078125 477.191406 437.234375 475.039062 437.234375 472.382812 L 437.234375 447.652344 C 437.234375 444.996094 435.078125 442.84375 432.425781 442.84375 Z M 427.613281 467.578125 L 414.257812 467.578125 L 414.257812 452.457031 L 427.613281 452.457031 Z M 432.425781 393.382812 L 409.449219 393.382812 C 406.792969 393.382812 404.640625 395.535156 404.640625 398.191406 L 404.640625 422.925781 C 404.640625 425.578125 406.792969 427.730469 409.449219 427.730469 L 432.425781 427.730469 C 435.078125 427.730469 437.234375 425.578125 437.234375 422.925781 L 437.234375 398.191406 C 437.234375 395.535156 435.078125 393.382812 432.425781 393.382812 Z M 427.613281 418.109375 L 414.257812 418.109375 L 414.257812 402.988281 L 427.613281 402.988281 Z M 427.613281 418.109375 " fill-opacity="1" fill-rule="nonzero"/></g><g clip-path="url(#e2a0d0e0f5)"><path fill="#ffffff" d="M 514.859375 396.617188 C 479.859375 396.617188 451.484375 424.992188 451.484375 459.992188 C 451.484375 494.996094 479.859375 523.367188 514.859375 523.367188 C 549.863281 523.367188 578.234375 494.996094 578.234375 459.992188 C 578.234375 424.992188 549.863281 396.617188 514.859375 396.617188 " fill-opacity="1" fill-rule="nonzero"/></g><g clip-path="url(#6745f9156e)"><path fill="#ffa229" d="M 515.320312 392.035156 C 552.652344 392.035156 583.195312 422.578125 583.195312 459.910156 C 583.195312 497.242188 552.652344 527.785156 515.320312 527.785156 C 477.988281 527.785156 447.445312 497.242188 447.445312 459.910156 C 447.445312 422.578125 477.988281 392.035156 515.320312 392.035156 Z M 515.320312 399.554688 C 482.121094 399.554688 454.960938 426.714844 454.960938 459.910156 C 454.960938 493.105469 482.121094 520.265625 515.320312 520.265625 C 548.515625 520.265625 575.675781 493.105469 575.675781 459.910156 C 575.675781 426.714844 548.515625 399.554688 515.320312 399.554688 " fill-opacity="1" fill-rule="evenodd"/></g><path fill="#ffa229" d="M 501.605469 470.316406 L 540.703125 431.21875 C 544.066406 427.851562 549.527344 427.851562 552.894531 431.21875 C 556.257812 434.582031 556.257812 440.042969 552.894531 443.40625 L 507.746094 488.554688 C 507.730469 488.570312 507.714844 488.585938 507.699219 488.601562 C 504.335938 491.96875 498.875 491.96875 495.507812 488.601562 L 493.882812 486.976562 L 477.746094 470.835938 C 474.378906 467.46875 474.378906 462.011719 477.746094 458.644531 C 481.109375 455.28125 486.570312 455.28125 489.933594 458.644531 L 501.605469 470.316406 " fill-opacity="1" fill-rule="evenodd"/></svg>