<svg xmlns="http://www.w3.org/2000/svg" xmlns:xlink="http://www.w3.org/1999/xlink" width="1080" zoomAndPan="magnify" viewBox="0 0 810 809.999993" height="1080" preserveAspectRatio="xMidYMid meet" version="1.0"><defs><clipPath id="29a2288c46"><path d="M 243.207031 274.183594 L 566.828125 274.183594 L 566.828125 535.933594 L 243.207031 535.933594 Z M 243.207031 274.183594 " clip-rule="nonzero"/></clipPath><clipPath id="86d2c53f46"><path d="M 381.667969 417.574219 L 428.167969 417.574219 L 428.167969 473.824219 L 381.667969 473.824219 Z M 381.667969 417.574219 " clip-rule="nonzero"/></clipPath><clipPath id="146f835466"><path d="M 386.890625 417.574219 L 422.945312 417.574219 C 425.828125 417.574219 428.167969 419.925781 428.167969 422.832031 L 428.167969 468.5625 C 428.167969 471.46875 425.828125 473.824219 422.945312 473.824219 L 386.890625 473.824219 C 384.007812 473.824219 381.667969 471.46875 381.667969 468.5625 L 381.667969 422.832031 C 381.667969 419.925781 384.007812 417.574219 386.890625 417.574219 " clip-rule="nonzero"/></clipPath><clipPath id="2fa50ca969"><path d="M 243.25 274.183594 L 566.871094 274.183594 L 566.871094 310.933594 L 243.25 310.933594 Z M 243.25 274.183594 " clip-rule="nonzero"/></clipPath></defs><g clip-path="url(#29a2288c46)"><path fill="#1c4670" d="M 555.796875 385.996094 C 555.796875 416.925781 493.363281 435.082031 427.777344 438.515625 L 427.777344 423.21875 C 427.777344 420.171875 425.308594 417.699219 422.265625 417.699219 L 387.773438 417.699219 C 384.730469 417.699219 382.261719 420.171875 382.261719 423.21875 L 382.261719 438.515625 C 316.675781 435.082031 254.238281 416.929688 254.238281 385.996094 L 254.238281 339.398438 C 254.238281 329.953125 261.921875 322.269531 271.367188 322.269531 L 538.679688 322.269531 C 548.117188 322.269531 555.796875 329.953125 555.796875 339.398438 Z M 393.289062 462.0625 L 393.289062 428.734375 L 416.75 428.734375 L 416.75 462.0625 Z M 555.796875 507.804688 C 555.796875 517.253906 548.117188 524.9375 538.679688 524.9375 L 271.367188 524.9375 C 261.921875 524.9375 254.238281 517.253906 254.238281 507.804688 L 254.238281 411.664062 C 263.03125 420.96875 276.976562 428.925781 295.820312 435.210938 C 319.359375 443.058594 349.464844 448.035156 382.261719 449.613281 L 382.261719 467.582031 C 382.261719 470.628906 384.730469 473.097656 387.773438 473.097656 L 422.265625 473.097656 C 425.308594 473.097656 427.777344 470.628906 427.777344 467.582031 L 427.777344 449.617188 C 482.515625 447.023438 533.949219 434.921875 555.796875 411.828125 Z M 355.835938 295.878906 C 355.835938 290 360.613281 285.21875 366.492188 285.21875 L 443.554688 285.21875 C 449.425781 285.21875 454.207031 290 454.207031 295.878906 L 454.207031 311.234375 L 355.835938 311.234375 Z M 538.679688 311.234375 L 465.234375 311.234375 L 465.234375 295.878906 C 465.234375 283.917969 455.507812 274.1875 443.554688 274.1875 L 366.492188 274.1875 C 354.53125 274.1875 344.804688 283.917969 344.804688 295.878906 L 344.804688 311.234375 L 271.367188 311.234375 C 255.835938 311.234375 243.207031 323.871094 243.207031 339.398438 L 243.207031 507.804688 C 243.207031 523.335938 255.835938 535.972656 271.367188 535.972656 L 538.679688 535.972656 C 554.199219 535.972656 566.824219 523.335938 566.824219 507.804688 L 566.824219 339.398438 C 566.824219 323.871094 554.199219 311.234375 538.679688 311.234375 " fill-opacity="1" fill-rule="nonzero"/></g><g clip-path="url(#86d2c53f46)"><g clip-path="url(#146f835466)"><path stroke-linecap="butt" transform="matrix(0.746052, 0, 0, 0.751566, 381.669505, 417.572279)" fill="none" stroke-linejoin="miter" d="M 6.998336 0.00258096 L 55.325675 0.00258096 C 59.189768 0.00258096 62.326071 3.131466 62.326071 6.998393 L 62.326071 67.845323 C 62.326071 71.71225 59.189768 74.846333 55.325675 74.846333 L 6.998336 74.846333 C 3.134244 74.846333 -0.00205931 71.71225 -0.00205931 67.845323 L -0.00205931 6.998393 C -0.00205931 3.131466 3.134244 0.00258096 6.998336 0.00258096 " stroke="#ffa229" stroke-width="32" stroke-opacity="1" stroke-miterlimit="4"/></g></g><g clip-path="url(#2fa50ca969)"><path fill="#ffa229" d="M 555.839844 385.996094 C 555.839844 416.925781 493.40625 435.082031 427.820312 438.515625 L 427.820312 423.21875 C 427.820312 420.171875 425.351562 417.699219 422.308594 417.699219 L 387.816406 417.699219 C 384.773438 417.699219 382.304688 420.171875 382.304688 423.21875 L 382.304688 438.515625 C 316.714844 435.082031 254.28125 416.929688 254.28125 385.996094 L 254.28125 339.398438 C 254.28125 329.953125 261.964844 322.269531 271.40625 322.269531 L 538.722656 322.269531 C 548.160156 322.269531 555.839844 329.953125 555.839844 339.398438 Z M 393.332031 462.0625 L 393.332031 428.734375 L 416.792969 428.734375 L 416.792969 462.0625 Z M 555.839844 507.804688 C 555.839844 517.253906 548.160156 524.9375 538.722656 524.9375 L 271.40625 524.9375 C 261.964844 524.9375 254.28125 517.253906 254.28125 507.804688 L 254.28125 411.664062 C 263.074219 420.96875 277.019531 428.925781 295.863281 435.210938 C 319.402344 443.058594 349.507812 448.035156 382.304688 449.613281 L 382.304688 467.582031 C 382.304688 470.628906 384.773438 473.097656 387.816406 473.097656 L 422.308594 473.097656 C 425.351562 473.097656 427.820312 470.628906 427.820312 467.582031 L 427.820312 449.617188 C 482.558594 447.023438 533.992188 434.921875 555.839844 411.828125 Z M 355.878906 295.878906 C 355.878906 290 360.65625 285.21875 366.535156 285.21875 L 443.597656 285.21875 C 449.46875 285.21875 454.25 290 454.25 295.878906 L 454.25 311.234375 L 355.878906 311.234375 Z M 538.722656 311.234375 L 465.277344 311.234375 L 465.277344 295.878906 C 465.277344 283.917969 455.550781 274.1875 443.597656 274.1875 L 366.535156 274.1875 C 354.574219 274.1875 344.847656 283.917969 344.847656 295.878906 L 344.847656 311.234375 L 271.40625 311.234375 C 255.878906 311.234375 243.25 323.871094 243.25 339.398438 L 243.25 507.804688 C 243.25 523.335938 255.878906 535.972656 271.40625 535.972656 L 538.722656 535.972656 C 554.242188 535.972656 566.867188 523.335938 566.867188 507.804688 L 566.867188 339.398438 C 566.867188 323.871094 554.242188 311.234375 538.722656 311.234375 " fill-opacity="1" fill-rule="nonzero"/></g></svg>