<svg xmlns="http://www.w3.org/2000/svg" xmlns:xlink="http://www.w3.org/1999/xlink" width="1080" zoomAndPan="magnify" viewBox="0 0 810 809.999993" height="1080" preserveAspectRatio="xMidYMid meet" version="1.0"><defs><clipPath id="6d71fe4550"><path d="M 243 269.933594 L 567 269.933594 L 567 539.933594 L 243 539.933594 Z M 243 269.933594 " clip-rule="nonzero"/></clipPath><clipPath id="ff7464b3f9"><path d="M 425.871094 364 L 432 364 L 432 401.183594 L 425.871094 401.183594 Z M 425.871094 364 " clip-rule="nonzero"/></clipPath><clipPath id="1423faa427"><path d="M 425.871094 269.933594 L 566.871094 269.933594 L 566.871094 401.183594 L 425.871094 401.183594 Z M 425.871094 269.933594 " clip-rule="nonzero"/></clipPath></defs><path fill="#1c4670" d="M 401.300781 434.558594 C 401.292969 434.558594 401.289062 434.558594 401.285156 434.558594 C 383.132812 434.554688 373.933594 410.023438 373.152344 399.796875 C 371.542969 378.691406 381.238281 364.144531 402.332031 364.144531 C 423.382812 364.144531 433.125 378.644531 431.511719 399.796875 C 430.589844 411.921875 420.78125 434.558594 401.300781 434.558594 Z M 402.332031 375.878906 C 388.121094 375.878906 383.785156 384.855469 384.859375 398.90625 C 385.414062 406.210938 392.199219 422.820312 401.289062 422.820312 C 401.292969 422.820312 401.296875 422.820312 401.296875 422.820312 C 413.019531 422.820312 419.285156 405.714844 419.804688 398.90625 C 420.894531 384.683594 416.421875 375.878906 402.332031 375.878906 Z M 402.332031 375.878906 " fill-opacity="1" fill-rule="nonzero"/><g clip-path="url(#6d71fe4550)"><path fill="#1c4670" d="M 566.746094 353.328125 L 566.746094 292.242188 C 566.746094 280.316406 556.609375 270.554688 543.917969 270 L 450.71875 269.976562 C 437.007812 269.976562 425.851562 279.96875 425.851562 292.246094 L 425.851562 328.652344 L 275.179688 328.652344 C 267.625 328.652344 261.480469 335.246094 261.480469 343.351562 L 261.480469 492.949219 L 256.257812 492.949219 C 248.996094 492.949219 243.085938 498.542969 243.085938 505.421875 C 243.085938 524.425781 259.921875 539.894531 280.613281 539.894531 L 524.128906 539.894531 C 544.824219 539.894531 561.65625 524.425781 561.65625 505.421875 C 561.65625 498.542969 555.746094 492.949219 548.472656 492.949219 L 543.265625 492.960938 L 543.265625 375.546875 C 556.253906 375.304688 566.746094 365.449219 566.746094 353.328125 Z M 437.59375 292.242188 C 437.59375 286.433594 443.484375 281.710938 450.71875 281.710938 L 542.785156 281.710938 C 549.523438 281.710938 555.007812 286.4375 555.007812 292.242188 L 555.007812 353.328125 C 555.007812 359.136719 549.523438 363.859375 542.785156 363.859375 L 488.785156 363.859375 C 487.257812 363.859375 485.738281 364.355469 484.496094 365.265625 L 461.078125 382.480469 L 461.078125 370.914062 C 461.078125 367.023438 457.835938 363.859375 453.851562 363.859375 L 450.71875 363.859375 C 443.484375 363.859375 437.59375 359.136719 437.59375 353.328125 Z M 548.484375 504.683594 C 554.355469 504.683594 546.128906 528.15625 524.128906 528.15625 L 280.613281 528.15625 C 258.613281 528.15625 250.386719 504.683594 256.257812 504.683594 L 353.425781 504.695312 C 357.660156 507.367188 363.960938 510.554688 369.933594 510.554688 L 434.835938 510.554688 C 441.78125 510.554688 448.128906 508.421875 452 504.871094 C 452.003906 504.867188 449.847656 504.859375 548.484375 504.683594 Z M 344.871094 492.949219 C 349.542969 472.773438 367.8125 457.742188 389.058594 457.742188 L 415.6875 457.742188 C 436.988281 457.742188 455.296875 472.847656 459.910156 493.105469 L 452.132812 493.117188 C 444.175781 493.132812 445.273438 498.816406 434.839844 498.816406 L 369.933594 498.816406 C 363.734375 498.816406 359.800781 492.949219 353.457031 492.949219 Z M 471.925781 493.082031 C 467.132812 466.296875 443.390625 446.007812 415.6875 446.007812 L 389.058594 446.007812 C 361.398438 446.007812 337.679688 466.226562 332.835938 492.949219 L 273.21875 492.949219 L 273.21875 343.347656 C 273.21875 341.652344 274.253906 340.386719 275.175781 340.386719 L 425.851562 340.386719 L 425.851562 353.324219 C 425.851562 365.191406 436.261719 374.914062 449.335938 375.558594 L 449.335938 392.609375 C 449.335938 398.039062 455.523438 401.128906 459.863281 397.9375 L 490.253906 375.59375 L 531.519531 375.59375 L 531.519531 492.976562 Z M 471.925781 493.082031 " fill-opacity="1" fill-rule="nonzero"/></g><path fill="#1c4670" d="M 466.949219 305.179688 L 455.207031 305.179688 C 447.453125 305.179688 447.441406 293.445312 455.207031 293.445312 L 466.949219 293.445312 C 474.703125 293.445312 474.714844 305.179688 466.949219 305.179688 Z M 466.949219 305.179688 " fill-opacity="1" fill-rule="nonzero"/><path fill="#1c4670" d="M 537.394531 305.179688 L 484.558594 305.179688 C 476.804688 305.179688 476.792969 293.445312 484.558594 293.445312 L 537.394531 293.445312 C 545.152344 293.445312 545.160156 305.179688 537.394531 305.179688 Z M 537.394531 305.179688 " fill-opacity="1" fill-rule="nonzero"/><path fill="#1c4670" d="M 537.394531 328.652344 L 455.207031 328.652344 C 447.453125 328.652344 447.441406 316.917969 455.207031 316.917969 L 537.394531 316.917969 C 545.152344 316.917969 545.160156 328.652344 537.394531 328.652344 Z M 537.394531 328.652344 " fill-opacity="1" fill-rule="nonzero"/><path fill="#1c4670" d="M 502.171875 352.121094 L 455.207031 352.121094 C 447.453125 352.121094 447.441406 340.386719 455.207031 340.386719 L 502.171875 340.386719 C 509.925781 340.386719 509.9375 352.121094 502.171875 352.121094 Z M 502.171875 352.121094 " fill-opacity="1" fill-rule="nonzero"/><g clip-path="url(#ff7464b3f9)"><path fill="#ffa229" d="M 401.300781 434.558594 C 401.292969 434.558594 401.289062 434.558594 401.285156 434.558594 C 383.132812 434.554688 373.933594 410.023438 373.152344 399.796875 C 371.542969 378.691406 381.238281 364.144531 402.332031 364.144531 C 423.382812 364.144531 433.125 378.644531 431.511719 399.796875 C 430.589844 411.921875 420.78125 434.558594 401.300781 434.558594 Z M 402.335938 375.878906 C 388.121094 375.878906 383.785156 384.855469 384.859375 398.90625 C 385.414062 406.210938 392.199219 422.820312 401.289062 422.820312 C 401.292969 422.820312 401.296875 422.820312 401.296875 422.820312 C 413.019531 422.820312 419.285156 405.714844 419.804688 398.90625 C 420.894531 384.683594 416.421875 375.878906 402.335938 375.878906 Z M 402.335938 375.878906 " fill-opacity="1" fill-rule="nonzero"/></g><g clip-path="url(#1423faa427)"><path fill="#ffa229" d="M 566.746094 353.328125 L 566.746094 292.242188 C 566.746094 280.316406 556.609375 270.554688 543.917969 270 L 450.71875 269.976562 C 437.007812 269.976562 425.851562 279.96875 425.851562 292.246094 L 425.851562 328.652344 L 275.179688 328.652344 C 267.625 328.652344 261.480469 335.246094 261.480469 343.351562 L 261.480469 492.949219 L 256.257812 492.949219 C 248.996094 492.949219 243.085938 498.542969 243.085938 505.421875 C 243.085938 524.425781 259.921875 539.894531 280.613281 539.894531 L 524.128906 539.894531 C 544.824219 539.894531 561.65625 524.425781 561.65625 505.421875 C 561.65625 498.542969 555.75 492.949219 548.472656 492.949219 L 543.265625 492.960938 L 543.265625 375.546875 C 556.253906 375.304688 566.746094 365.449219 566.746094 353.328125 Z M 437.59375 292.242188 C 437.59375 286.433594 443.484375 281.710938 450.71875 281.710938 L 542.785156 281.710938 C 549.523438 281.710938 555.007812 286.4375 555.007812 292.242188 L 555.007812 353.328125 C 555.007812 359.136719 549.523438 363.859375 542.785156 363.859375 L 488.785156 363.859375 C 487.257812 363.859375 485.738281 364.355469 484.496094 365.265625 L 461.078125 382.480469 L 461.078125 370.914062 C 461.078125 367.023438 457.835938 363.859375 453.851562 363.859375 L 450.71875 363.859375 C 443.484375 363.859375 437.59375 359.136719 437.59375 353.328125 Z M 548.484375 504.683594 C 554.355469 504.683594 546.128906 528.15625 524.128906 528.15625 L 280.613281 528.15625 C 258.613281 528.15625 250.386719 504.683594 256.257812 504.683594 L 353.425781 504.695312 C 357.660156 507.367188 363.960938 510.554688 369.933594 510.554688 L 434.835938 510.554688 C 441.78125 510.554688 448.128906 508.421875 452 504.871094 C 452.003906 504.867188 449.847656 504.859375 548.484375 504.683594 Z M 344.871094 492.949219 C 349.542969 472.773438 367.8125 457.742188 389.058594 457.742188 L 415.6875 457.742188 C 436.988281 457.742188 455.296875 472.847656 459.910156 493.105469 L 452.132812 493.117188 C 444.175781 493.132812 445.273438 498.816406 434.839844 498.816406 L 369.933594 498.816406 C 363.734375 498.816406 359.800781 492.949219 353.457031 492.949219 Z M 471.925781 493.082031 C 467.132812 466.296875 443.390625 446.007812 415.6875 446.007812 L 389.058594 446.007812 C 361.398438 446.007812 337.679688 466.226562 332.835938 492.949219 L 273.21875 492.949219 L 273.21875 343.347656 C 273.21875 341.652344 274.253906 340.386719 275.175781 340.386719 L 425.851562 340.386719 L 425.851562 353.324219 C 425.851562 365.191406 436.261719 374.914062 449.335938 375.558594 L 449.335938 392.609375 C 449.335938 398.039062 455.523438 401.128906 459.863281 397.9375 L 490.253906 375.59375 L 531.519531 375.59375 L 531.519531 492.976562 Z M 471.925781 493.082031 " fill-opacity="1" fill-rule="nonzero"/></g><path fill="#ffa229" d="M 466.949219 305.179688 L 455.207031 305.179688 C 447.453125 305.179688 447.441406 293.445312 455.207031 293.445312 L 466.949219 293.445312 C 474.703125 293.445312 474.714844 305.179688 466.949219 305.179688 Z M 466.949219 305.179688 " fill-opacity="1" fill-rule="nonzero"/><path fill="#ffa229" d="M 537.394531 305.179688 L 484.558594 305.179688 C 476.804688 305.179688 476.792969 293.445312 484.558594 293.445312 L 537.394531 293.445312 C 545.152344 293.445312 545.160156 305.179688 537.394531 305.179688 Z M 537.394531 305.179688 " fill-opacity="1" fill-rule="nonzero"/><path fill="#ffa229" d="M 537.394531 328.652344 L 455.207031 328.652344 C 447.453125 328.652344 447.441406 316.917969 455.207031 316.917969 L 537.394531 316.917969 C 545.152344 316.917969 545.160156 328.652344 537.394531 328.652344 Z M 537.394531 328.652344 " fill-opacity="1" fill-rule="nonzero"/><path fill="#ffa229" d="M 502.171875 352.121094 L 455.207031 352.121094 C 447.453125 352.121094 447.441406 340.386719 455.207031 340.386719 L 502.171875 340.386719 C 509.925781 340.386719 509.9375 352.121094 502.171875 352.121094 Z M 502.171875 352.121094 " fill-opacity="1" fill-rule="nonzero"/><path stroke-linecap="round" transform="matrix(-2.076274, -10.228387, 10.290135, -2.088808, 429.320118, 404.996592)" fill="none" stroke-linejoin="miter" d="M 0.499975 -0.000076092 L 2.662651 0.000120675 " stroke="#1c4670" stroke-width="1" stroke-opacity="1" stroke-miterlimit="4"/><path stroke-linecap="butt" transform="matrix(0.000000000000000732, -11.95533, 11.999999, 0.000000000000000735, 536.9136, 410.006375)" fill="none" stroke-linejoin="miter" d="M -0.000120208 0.000038501 L 2.885949 0.000038501 " stroke="#1c4670" stroke-width="1" stroke-opacity="1" stroke-miterlimit="4"/></svg>