<svg xmlns="http://www.w3.org/2000/svg" xmlns:xlink="http://www.w3.org/1999/xlink" width="1080" zoomAndPan="magnify" viewBox="0 0 810 809.999993" height="1080" preserveAspectRatio="xMidYMid meet" version="1.0"><defs><clipPath id="076a3bbce8"><path d="M 243 402 L 567 402 L 567 508.320312 L 243 508.320312 Z M 243 402 " clip-rule="nonzero"/></clipPath><clipPath id="dd184d52e3"><path d="M 379 301.320312 L 491 301.320312 L 491 413 L 379 413 Z M 379 301.320312 " clip-rule="nonzero"/></clipPath><clipPath id="69f9623a9a"><path d="M 374.492188 402 L 524.492188 402 L 524.492188 419.070312 L 374.492188 419.070312 Z M 374.492188 402 " clip-rule="nonzero"/></clipPath><clipPath id="47e35d5cba"><path d="M 379 301.320312 L 491 301.320312 L 491 413 L 379 413 Z M 379 301.320312 " clip-rule="nonzero"/></clipPath></defs><g clip-path="url(#076a3bbce8)"><path fill="#1c4670" d="M 564.578125 441.484375 C 560.230469 433.066406 546.820312 433.066406 542.3125 433.066406 C 518.59375 433.066406 480.515625 443.40625 466.804688 447.359375 C 463.71875 440.214844 455.40625 433.648438 435.273438 433.648438 C 423.167969 433.648438 411.785156 436.078125 411.289062 436.183594 C 407.5625 437.003906 404.140625 436.804688 399.710938 435.515625 C 390.6875 432.882812 383.046875 427.53125 374.957031 421.863281 C 366.734375 416.101562 358.230469 410.140625 347.945312 407.035156 C 331.046875 401.925781 315.152344 400.734375 301.039062 403.515625 C 294.097656 404.886719 287.535156 407.296875 281.191406 409.632812 C 275.296875 411.800781 269.722656 413.847656 263.929688 415.109375 C 262.734375 415.367188 261.359375 415.742188 259.886719 416.152344 C 256.964844 416.957031 253.65625 417.871094 251.257812 417.871094 C 250.582031 417.871094 250.183594 417.796875 249.964844 417.734375 L 243 415.726562 C 243 415.726562 243 466.671875 243 483.609375 C 243 487.777344 246.664062 490.460938 250.867188 490.460938 C 252.929688 490.460938 255.058594 489.800781 257.121094 489.167969 C 258.128906 488.851562 259.273438 488.5 259.910156 488.40625 L 261.03125 488.234375 C 269.535156 486.976562 278.328125 485.667969 286.585938 485.667969 C 298.457031 485.667969 357.480469 500.851562 379.222656 506.703125 L 379.511719 506.773438 C 384.308594 507.765625 388.957031 508.261719 393.328125 508.261719 C 402.925781 508.261719 408.183594 505.863281 408.640625 505.636719 C 415.957031 502.304688 429.523438 498.476562 429.660156 498.4375 C 453.140625 491.820312 544.957031 462.945312 545.757812 462.691406 C 558.445312 459.050781 564.964844 454.695312 566.265625 448.976562 C 566.972656 445.894531 565.933594 443.210938 564.578125 441.484375 Z M 542.851562 452.800781 C 541.925781 453.089844 450.257812 481.917969 426.921875 488.492188 C 426.339844 488.65625 412.480469 492.570312 404.40625 496.246094 C 404.367188 496.261719 400.5625 497.941406 393.328125 497.941406 C 389.683594 497.941406 385.769531 497.519531 381.699219 496.6875 C 372.890625 494.316406 301.859375 475.34375 286.585938 475.34375 C 277.582031 475.34375 268.417969 476.707031 259.550781 478.027344 L 258.429688 478.191406 C 257.023438 478.402344 257.058594 478.855469 255.636719 479.292969 C 255.574219 479.316406 253.179688 478.132812 253.109375 478.15625 C 253.105469 456.609375 253.109375 437.695312 253.109375 427.578125 C 256.101562 427.242188 259.816406 426.867188 262.570312 426.109375 C 263.84375 425.753906 265.03125 425.421875 266.0625 425.199219 C 272.550781 423.792969 278.714844 421.527344 284.675781 419.332031 C 290.929688 417.035156 296.832031 414.863281 302.988281 413.644531 C 315.472656 411.183594 329.722656 412.300781 345.03125 416.925781 C 353.753906 419.5625 361.230469 424.804688 369.148438 430.347656 C 377.558594 436.238281 386.257812 442.335938 396.890625 445.4375 C 402.9375 447.199219 408.109375 447.4375 413.441406 446.277344 C 413.875 446.179688 424.234375 443.972656 435.273438 443.972656 C 445.234375 443.972656 457.292969 445.765625 458.152344 454.320312 L 458.46875 457.457031 C 457.632812 457.78125 456.792969 458.105469 455.960938 458.40625 C 451.203125 460.105469 446.273438 461.25 441.308594 462.375 C 436.332031 463.421875 431.257812 464.570312 426.238281 465.945312 C 421.371094 467.347656 416.703125 468.433594 412.136719 467.675781 C 407.492188 467.023438 402.320312 465.429688 397.191406 464.609375 C 392.109375 463.757812 386.917969 463.019531 381.738281 462.71875 C 376.5625 462.355469 371.289062 462.433594 366.167969 462.824219 C 361.046875 463.222656 355.996094 463.589844 350.859375 463.058594 C 355.78125 464.714844 361.074219 465.050781 366.191406 465.34375 C 371.320312 465.550781 376.316406 466.023438 381.339844 466.710938 C 386.359375 467.476562 391.324219 468.285156 396.3125 469.402344 C 398.761719 469.960938 401.246094 470.464844 403.695312 471.097656 C 406.144531 471.695312 408.722656 472.402344 411.460938 472.792969 C 417.132812 473.617188 422.734375 472.195312 427.621094 470.621094 C 432.425781 469.015625 437.34375 467.808594 442.304688 466.273438 C 447.257812 464.800781 452.222656 463.070312 456.925781 460.746094 C 457.519531 460.425781 458.1875 460.871094 458.777344 460.554688 L 464.707031 458.738281 C 465.203125 458.585938 515.097656 443.390625 542.3125 443.390625 C 551.839844 443.390625 555.152344 445.328125 555.570312 446.347656 L 555.867188 447.070312 C 554.785156 448.082031 551.601562 450.285156 542.851562 452.800781 Z M 542.851562 452.800781 " fill-opacity="1" fill-rule="nonzero"/></g><g clip-path="url(#dd184d52e3)"><path fill="#1c4670" d="M 435.074219 412.644531 C 465.78125 412.644531 490.675781 387.734375 490.675781 357.011719 C 490.675781 326.285156 465.78125 301.375 435.074219 301.375 C 404.367188 301.375 379.472656 326.285156 379.472656 357.011719 C 379.472656 387.734375 404.367188 412.644531 435.074219 412.644531 Z M 435.074219 311.492188 C 460.15625 311.492188 480.566406 331.910156 480.566406 357.011719 C 480.566406 382.109375 460.15625 402.527344 435.074219 402.527344 C 409.992188 402.527344 389.582031 382.109375 389.582031 357.011719 C 389.582031 331.910156 409.992188 311.492188 435.074219 311.492188 Z M 435.074219 311.492188 " fill-opacity="1" fill-rule="nonzero"/></g><path fill="#1c4670" d="M 433.253906 370.089844 C 428.894531 369.835938 425.046875 368.1875 422.328125 366.488281 L 419.84375 374.1875 C 422.296875 375.75 426.574219 377.277344 431.042969 377.757812 L 430.660156 384.105469 L 437.28125 384.5 L 437.695312 377.617188 C 445.457031 376.796875 449.90625 371.964844 450.277344 366.011719 C 450.636719 359.910156 447.722656 356.050781 439.914062 352.757812 C 434.292969 350.339844 432.039062 348.730469 432.167969 346.582031 C 432.277344 344.714844 433.800781 342.851562 438.144531 343.125 C 442.96875 343.402344 446.015625 345.140625 447.640625 346.03125 L 450.09375 338.597656 C 447.820312 337.375 444.875 336.199219 440.464844 335.800781 L 440.816406 329.914062 L 434.265625 329.519531 L 433.886719 335.882812 C 426.644531 336.789062 422.222656 341.152344 421.863281 347.109375 C 421.480469 353.601562 426.160156 357.238281 433.171875 360.074219 C 438.089844 362.058594 440.132812 363.785156 439.980469 366.328125 C 439.824219 368.945312 437.128906 370.316406 433.253906 370.089844 Z M 433.253906 370.089844 " fill-opacity="1" fill-rule="nonzero"/><g clip-path="url(#69f9623a9a)"><path fill="#ffa229" d="M 564.578125 441.484375 C 560.230469 433.066406 546.820312 433.066406 542.3125 433.066406 C 518.59375 433.066406 480.515625 443.40625 466.804688 447.359375 C 463.71875 440.214844 455.40625 433.648438 435.273438 433.648438 C 423.167969 433.648438 411.785156 436.078125 411.289062 436.183594 C 407.5625 437.003906 404.140625 436.804688 399.710938 435.515625 C 390.6875 432.882812 383.046875 427.53125 374.957031 421.863281 C 366.734375 416.101562 358.230469 410.140625 347.945312 407.035156 C 331.046875 401.925781 315.152344 400.734375 301.039062 403.515625 C 294.097656 404.886719 287.535156 407.296875 281.191406 409.632812 C 275.296875 411.800781 269.722656 413.847656 263.929688 415.109375 C 262.734375 415.367188 261.359375 415.742188 259.886719 416.152344 C 256.964844 416.957031 253.65625 417.871094 251.257812 417.871094 C 250.582031 417.871094 250.183594 417.796875 249.964844 417.734375 L 243 415.726562 C 243 415.726562 243 466.671875 243 483.609375 C 243 487.777344 246.664062 490.460938 250.867188 490.460938 C 252.929688 490.460938 255.058594 489.800781 257.121094 489.167969 C 258.128906 488.851562 259.273438 488.5 259.910156 488.40625 L 261.03125 488.234375 C 269.535156 486.976562 278.328125 485.667969 286.585938 485.667969 C 298.457031 485.667969 357.480469 500.851562 379.222656 506.703125 L 379.511719 506.773438 C 384.308594 507.765625 388.957031 508.261719 393.328125 508.261719 C 402.925781 508.261719 408.183594 505.863281 408.640625 505.636719 C 415.957031 502.304688 429.523438 498.476562 429.660156 498.4375 C 453.140625 491.820312 544.957031 462.945312 545.757812 462.691406 C 558.445312 459.050781 564.964844 454.695312 566.265625 448.976562 C 566.972656 445.894531 565.933594 443.210938 564.578125 441.484375 Z M 542.851562 452.800781 C 541.925781 453.089844 450.257812 481.917969 426.921875 488.492188 C 426.339844 488.65625 412.480469 492.570312 404.40625 496.246094 C 404.367188 496.261719 400.5625 497.941406 393.328125 497.941406 C 389.683594 497.941406 385.769531 497.519531 381.699219 496.6875 C 372.890625 494.316406 301.859375 475.34375 286.585938 475.34375 C 277.582031 475.34375 268.417969 476.707031 259.550781 478.027344 L 258.429688 478.191406 C 257.023438 478.402344 257.058594 478.855469 255.636719 479.292969 C 255.574219 479.316406 253.179688 478.132812 253.109375 478.15625 C 253.105469 456.609375 253.109375 437.695312 253.109375 427.578125 C 256.101562 427.242188 259.816406 426.867188 262.570312 426.109375 C 263.84375 425.753906 265.03125 425.421875 266.0625 425.199219 C 272.550781 423.792969 278.714844 421.527344 284.675781 419.332031 C 290.929688 417.035156 296.832031 414.863281 302.988281 413.644531 C 315.472656 411.183594 329.722656 412.300781 345.03125 416.925781 C 353.753906 419.5625 361.230469 424.804688 369.148438 430.347656 C 377.558594 436.238281 386.257812 442.335938 396.890625 445.4375 C 402.9375 447.199219 408.109375 447.4375 413.441406 446.277344 C 413.875 446.179688 424.234375 443.972656 435.273438 443.972656 C 445.234375 443.972656 457.292969 445.765625 458.152344 454.320312 L 458.46875 457.457031 C 457.632812 457.78125 456.792969 458.105469 455.960938 458.40625 C 451.203125 460.105469 446.273438 461.25 441.308594 462.375 C 436.332031 463.421875 431.257812 464.570312 426.238281 465.945312 C 421.371094 467.347656 416.703125 468.433594 412.136719 467.675781 C 407.492188 467.023438 402.320312 465.429688 397.191406 464.609375 C 392.109375 463.757812 386.917969 463.019531 381.738281 462.71875 C 376.5625 462.355469 371.289062 462.433594 366.167969 462.824219 C 361.046875 463.222656 355.996094 463.589844 350.859375 463.058594 C 355.78125 464.714844 361.074219 465.050781 366.191406 465.34375 C 371.320312 465.550781 376.316406 466.023438 381.339844 466.710938 C 386.359375 467.476562 391.324219 468.285156 396.3125 469.402344 C 398.761719 469.960938 401.246094 470.464844 403.695312 471.097656 C 406.144531 471.695312 408.722656 472.402344 411.460938 472.792969 C 417.132812 473.617188 422.734375 472.195312 427.621094 470.621094 C 432.425781 469.015625 437.34375 467.808594 442.304688 466.273438 C 447.257812 464.800781 452.222656 463.070312 456.925781 460.746094 C 457.519531 460.425781 458.1875 460.871094 458.777344 460.554688 L 464.707031 458.738281 C 465.203125 458.585938 515.097656 443.390625 542.3125 443.390625 C 551.839844 443.390625 555.152344 445.328125 555.570312 446.347656 L 555.867188 447.070312 C 554.785156 448.082031 551.601562 450.285156 542.851562 452.800781 Z M 542.851562 452.800781 " fill-opacity="1" fill-rule="nonzero"/></g><g clip-path="url(#47e35d5cba)"><path fill="#ffa229" d="M 435.074219 412.644531 C 465.78125 412.644531 490.675781 387.734375 490.675781 357.011719 C 490.675781 326.285156 465.78125 301.375 435.074219 301.375 C 404.367188 301.375 379.472656 326.285156 379.472656 357.011719 C 379.472656 387.734375 404.367188 412.644531 435.074219 412.644531 Z M 435.074219 311.492188 C 460.15625 311.492188 480.566406 331.910156 480.566406 357.011719 C 480.566406 382.109375 460.15625 402.527344 435.074219 402.527344 C 409.992188 402.527344 389.582031 382.109375 389.582031 357.011719 C 389.582031 331.910156 409.992188 311.492188 435.074219 311.492188 Z M 435.074219 311.492188 " fill-opacity="1" fill-rule="nonzero"/></g><path fill="#ffa229" d="M 433.253906 370.089844 C 428.894531 369.835938 425.046875 368.1875 422.328125 366.488281 L 419.84375 374.1875 C 422.296875 375.75 426.574219 377.277344 431.042969 377.757812 L 430.660156 384.105469 L 437.28125 384.5 L 437.695312 377.617188 C 445.457031 376.796875 449.90625 371.964844 450.277344 366.011719 C 450.636719 359.910156 447.722656 356.050781 439.914062 352.757812 C 434.292969 350.339844 432.039062 348.730469 432.167969 346.582031 C 432.277344 344.714844 433.800781 342.851562 438.144531 343.125 C 442.96875 343.402344 446.015625 345.140625 447.640625 346.03125 L 450.09375 338.597656 C 447.820312 337.375 444.875 336.199219 440.464844 335.800781 L 440.816406 329.914062 L 434.265625 329.519531 L 433.886719 335.882812 C 426.644531 336.789062 422.222656 341.152344 421.863281 347.109375 C 421.480469 353.601562 426.160156 357.238281 433.171875 360.074219 C 438.089844 362.058594 440.132812 363.785156 439.980469 366.328125 C 439.824219 368.945312 437.128906 370.316406 433.253906 370.089844 Z M 433.253906 370.089844 " fill-opacity="1" fill-rule="nonzero"/></svg>