<svg xmlns="http://www.w3.org/2000/svg" xmlns:xlink="http://www.w3.org/1999/xlink" width="1080" zoomAndPan="magnify" viewBox="0 0 810 809.999993" height="1080" preserveAspectRatio="xMidYMid meet" version="1.0"><defs><g/><clipPath id="c7d5bca181"><path d="M 278.347656 243.003906 L 531.847656 243.003906 L 531.847656 567 L 278.347656 567 Z M 278.347656 243.003906 " clip-rule="nonzero"/></clipPath><clipPath id="3a781f112f"><path d="M 316.625 243.003906 L 493.566406 243.003906 C 503.71875 243.003906 513.457031 247.035156 520.632812 254.207031 C 527.8125 261.382812 531.847656 271.109375 531.847656 281.253906 L 531.847656 528.746094 C 531.847656 538.890625 527.8125 548.621094 520.632812 555.792969 C 513.457031 562.964844 503.71875 566.996094 493.566406 566.996094 L 316.625 566.996094 C 306.472656 566.996094 296.734375 562.964844 289.558594 555.792969 C 282.378906 548.621094 278.347656 538.890625 278.347656 528.746094 L 278.347656 281.253906 C 278.347656 271.109375 282.378906 261.382812 289.558594 254.207031 C 296.734375 247.035156 306.472656 243.003906 316.625 243.003906 " clip-rule="nonzero"/></clipPath><clipPath id="15f3b3dd88"><path d="M 432.695312 397.378906 L 594.695312 397.378906 L 594.695312 559.378906 L 432.695312 559.378906 Z M 432.695312 397.378906 " clip-rule="nonzero"/></clipPath><clipPath id="1412c20bf2"><path d="M 432.695312 397.378906 L 594.695312 397.378906 L 594.695312 559.378906 L 432.695312 559.378906 Z M 432.695312 397.378906 " clip-rule="nonzero"/></clipPath><clipPath id="734a900858"><path d="M 513.695312 397.378906 C 468.957031 397.378906 432.695312 433.644531 432.695312 478.378906 C 432.695312 523.113281 468.957031 559.378906 513.695312 559.378906 C 558.429688 559.378906 594.695312 523.113281 594.695312 478.378906 C 594.695312 433.644531 558.429688 397.378906 513.695312 397.378906 " clip-rule="nonzero"/></clipPath><clipPath id="7c96f97f1a"><path d="M 483.316406 445.664062 L 540.316406 445.664062 L 540.316406 510.914062 L 483.316406 510.914062 Z M 483.316406 445.664062 " clip-rule="nonzero"/></clipPath></defs><g clip-path="url(#c7d5bca181)"><g clip-path="url(#3a781f112f)"><path stroke-linecap="butt" transform="matrix(0.75059, 0, 0, 0.75, 278.345879, 243.005002)" fill="none" stroke-linejoin="miter" d="M 50.998719 -0.00146123 L 286.735192 -0.00146123 C 300.261013 -0.00146123 313.235184 5.373539 322.795373 14.93604 C 332.360767 24.50375 337.736747 37.472501 337.736747 50.998545 L 337.736747 380.988166 C 337.736747 394.514209 332.360767 407.488169 322.795373 417.05067 C 313.235184 426.613171 300.261013 431.988171 286.735192 431.988171 L 50.998719 431.988171 C 37.472898 431.988171 24.498727 426.613171 14.938537 417.05067 C 5.373144 407.488169 0.00236768 394.514209 0.00236768 380.988166 L 0.00236768 50.998545 C 0.00236768 37.472501 5.373144 24.50375 14.938537 14.93604 C 24.498727 5.373539 37.472898 -0.00146123 50.998719 -0.00146123 " stroke="#1c4670" stroke-width="28" stroke-opacity="1" stroke-miterlimit="4"/></g></g><g clip-path="url(#15f3b3dd88)"><path fill="#ffffff" d="M 513.695312 397.378906 C 468.957031 397.378906 432.695312 433.644531 432.695312 478.378906 C 432.695312 523.113281 468.957031 559.378906 513.695312 559.378906 C 558.429688 559.378906 594.695312 523.113281 594.695312 478.378906 C 594.695312 433.644531 558.429688 397.378906 513.695312 397.378906 " fill-opacity="1" fill-rule="nonzero"/></g><g clip-path="url(#1412c20bf2)"><g clip-path="url(#734a900858)"><path stroke-linecap="butt" transform="matrix(0.750434, 0, 0, 0.750434, 432.693582, 397.37789)" fill="none" stroke-linejoin="miter" d="M 107.939815 0.00135367 C 48.323289 0.00135367 0.00230636 48.327542 0.00230636 107.938862 C 0.00230636 167.550183 48.323289 215.876371 107.939815 215.876371 C 167.551136 215.876371 215.877324 167.550183 215.877324 107.938862 C 215.877324 48.327542 167.551136 0.00135367 107.939815 0.00135367 " stroke="#ffa229" stroke-width="24" stroke-opacity="1" stroke-miterlimit="4"/></g></g><g clip-path="url(#7c96f97f1a)"><path fill="#ffa229" d="M 483.5 459.726562 C 483.5 457.210938 484.09375 454.878906 485.28125 452.730469 C 486.5 450.554688 488.15625 448.84375 490.25 447.597656 C 492.34375 446.328125 494.605469 445.691406 497.042969 445.691406 C 498.964844 445.691406 500.761719 446.070312 502.433594 446.835938 C 504.101562 447.597656 505.574219 448.628906 506.761719 449.929688 C 507.980469 451.203125 508.929688 452.6875 509.605469 454.382812 C 510.285156 456.082031 510.625 457.863281 510.625 459.726562 C 510.625 462.214844 510.03125 464.546875 508.84375 466.726562 C 507.65625 468.902344 506.011719 470.640625 503.917969 471.941406 C 501.824219 473.242188 499.53125 473.890625 497.042969 473.890625 C 494.496094 473.890625 492.171875 473.242188 490.078125 471.941406 C 487.984375 470.640625 486.398438 468.902344 485.238281 466.726562 C 484.078125 464.546875 483.5 462.1875 483.5 459.726562 Z M 493.855469 499.507812 L 521.917969 450.269531 C 522.824219 448.714844 523.671875 447.570312 524.464844 446.835938 C 525.257812 446.070312 526.207031 445.691406 527.308594 445.691406 C 528.246094 445.691406 529.105469 445.917969 529.898438 446.367188 C 530.691406 446.820312 531.316406 447.386719 531.769531 448.148438 C 532.21875 448.886719 532.445312 449.675781 532.445312 450.523438 C 532.445312 451.570312 532.21875 452.5625 531.769531 453.492188 C 531.316406 454.425781 530.636719 455.585938 529.730469 457.054688 L 501.667969 506.292969 C 500.847656 507.792969 500.027344 508.9375 499.207031 509.726562 C 498.386719 510.519531 497.410156 510.914062 496.277344 510.914062 C 494.832031 510.914062 493.617188 510.433594 492.625 509.472656 C 491.636719 508.511719 491.140625 507.367188 491.140625 506.039062 C 491.140625 504.992188 491.351562 504.03125 491.777344 503.15625 C 492.203125 502.277344 492.921875 501.0625 493.855469 499.507812 Z M 493.390625 459.726562 C 493.390625 460.914062 493.714844 461.917969 494.367188 462.738281 C 495.019531 463.558594 495.9375 463.925781 497.042969 463.925781 C 498.171875 463.925781 499.066406 463.53125 499.714844 462.738281 C 500.367188 461.949219 500.691406 460.914062 500.691406 459.726562 C 500.691406 458.539062 500.367188 457.605469 499.714844 456.84375 C 499.066406 456.082031 498.171875 455.65625 497.042969 455.65625 C 495.9375 455.65625 495.046875 456.050781 494.367188 456.84375 C 493.6875 457.636719 493.390625 458.570312 493.390625 459.726562 Z M 522.894531 496.835938 C 522.894531 497.9375 523.21875 498.898438 523.871094 499.71875 C 524.523438 500.539062 525.441406 500.90625 526.546875 500.90625 C 527.648438 500.90625 528.527344 500.511719 529.179688 499.71875 C 529.828125 498.929688 530.195312 497.9375 530.195312 496.835938 C 530.195312 495.675781 529.855469 494.703125 529.179688 493.910156 C 528.5 493.117188 527.648438 492.679688 526.546875 492.679688 C 525.441406 492.679688 524.550781 493.089844 523.871094 493.910156 C 523.191406 494.730469 522.894531 495.675781 522.894531 496.835938 Z M 512.960938 496.835938 C 512.960938 494.292969 513.554688 491.945312 514.746094 489.796875 C 515.960938 487.617188 517.601562 485.894531 519.667969 484.621094 C 521.734375 483.351562 524.054688 482.671875 526.546875 482.671875 C 529.035156 482.671875 531.316406 483.320312 533.382812 484.621094 C 535.445312 485.921875 537.074219 487.660156 538.261719 489.839844 C 539.480469 491.988281 540.089844 494.320312 540.089844 496.835938 C 540.089844 499.324219 539.480469 501.640625 538.261719 503.792969 C 537.074219 505.941406 535.445312 507.664062 533.382812 508.964844 C 531.316406 510.265625 529.035156 510.914062 526.546875 510.914062 C 523.96875 510.914062 521.636719 510.28125 519.542969 509.007812 C 517.445312 507.734375 515.863281 505.96875 514.703125 503.792969 C 513.542969 501.613281 512.960938 499.296875 512.960938 496.835938 Z M 512.960938 496.835938 " fill-opacity="1" fill-rule="nonzero"/></g><path stroke-linecap="round" transform="matrix(11.275647, 0, 0, 11.249999, 314.452692, 385.377891)" fill="none" stroke-linejoin="miter" d="M 0.49994 0.0000902434 L 10.010204 0.0000902434 " stroke="#1c4670" stroke-width="1" stroke-opacity="1" stroke-miterlimit="4"/><path stroke-linecap="round" transform="matrix(11.27621, 0, 0, 11.249999, 314.452692, 440.03719)" fill="none" stroke-linejoin="miter" d="M 0.499915 0.000166457 L 7.548771 0.000166457 " stroke="#1c4670" stroke-width="1" stroke-opacity="1" stroke-miterlimit="4"/><path stroke-linecap="round" transform="matrix(11.278544, 0, 0, 11.249999, 314.452692, 494.696707)" fill="none" stroke-linejoin="miter" d="M 0.500158 -0.000123966 L 8.943666 -0.000123966 " stroke="#1c4670" stroke-width="1" stroke-opacity="1" stroke-miterlimit="4"/><g fill="#1c4670" fill-opacity="1"><g transform="translate(334.992378, 328.495551)"><g><path d="M 25.828125 -43.046875 C 29.890625 -43.046875 33.539062 -42.429688 36.78125 -41.203125 C 40.019531 -39.972656 42.59375 -38.160156 44.5 -35.765625 C 46.40625 -33.367188 47.359375 -30.445312 47.359375 -27 L 34.375 -27 C 34.375 -28.757812 33.59375 -30.179688 32.03125 -31.265625 C 30.476562 -32.359375 28.597656 -32.90625 26.390625 -32.90625 C 23.191406 -32.90625 20.769531 -32.050781 19.125 -30.34375 C 17.488281 -28.644531 16.671875 -26.238281 16.671875 -23.125 L 16.671875 -19.1875 C 16.671875 -16.070312 17.488281 -13.660156 19.125 -11.953125 C 20.769531 -10.253906 23.191406 -9.40625 26.390625 -9.40625 C 28.597656 -9.40625 30.476562 -9.925781 32.03125 -10.96875 C 33.59375 -12.019531 34.375 -13.363281 34.375 -15 L 24.78125 -15 L 24.78125 -23.609375 L 47.359375 -23.609375 L 47.359375 0 L 40.34375 0 L 38.984375 -4.1875 C 35.128906 -0.90625 30.085938 0.734375 23.859375 0.734375 C 16.847656 0.734375 11.578125 -1.097656 8.046875 -4.765625 C 4.523438 -8.429688 2.765625 -13.894531 2.765625 -21.15625 C 2.765625 -28.332031 4.765625 -33.773438 8.765625 -37.484375 C 12.765625 -41.191406 18.453125 -43.046875 25.828125 -43.046875 Z M 25.828125 -43.046875 "/></g></g></g><g fill="#1c4670" fill-opacity="1"><g transform="translate(386.212057, 328.495551)"><g><path d="M 22.328125 -43.046875 C 27.734375 -43.046875 32.175781 -41.945312 35.65625 -39.75 C 39.144531 -37.5625 40.929688 -34.316406 41.015625 -30.015625 L 41.015625 -29.28125 L 28.296875 -29.28125 L 28.296875 -29.515625 C 28.296875 -30.742188 27.84375 -31.769531 26.9375 -32.59375 C 26.03125 -33.414062 24.65625 -33.828125 22.8125 -33.828125 C 21.007812 -33.828125 19.625 -33.554688 18.65625 -33.015625 C 17.695312 -32.484375 17.21875 -31.832031 17.21875 -31.0625 C 17.21875 -29.945312 17.875 -29.125 19.1875 -28.59375 C 20.5 -28.0625 22.609375 -27.507812 25.515625 -26.9375 C 28.921875 -26.238281 31.71875 -25.507812 33.90625 -24.75 C 36.101562 -23.988281 38.019531 -22.75 39.65625 -21.03125 C 41.300781 -19.3125 42.144531 -16.972656 42.1875 -14.015625 C 42.1875 -9.015625 40.492188 -5.304688 37.109375 -2.890625 C 33.734375 -0.472656 29.210938 0.734375 23.546875 0.734375 C 16.953125 0.734375 11.816406 -0.367188 8.140625 -2.578125 C 4.472656 -4.796875 2.640625 -8.710938 2.640625 -14.328125 L 15.5 -14.328125 C 15.5 -12.191406 16.050781 -10.765625 17.15625 -10.046875 C 18.257812 -9.335938 19.984375 -8.984375 22.328125 -8.984375 C 24.046875 -8.984375 25.46875 -9.164062 26.59375 -9.53125 C 27.726562 -9.90625 28.296875 -10.664062 28.296875 -11.8125 C 28.296875 -12.832031 27.664062 -13.597656 26.40625 -14.109375 C 25.15625 -14.628906 23.117188 -15.175781 20.296875 -15.75 C 16.847656 -16.476562 13.992188 -17.242188 11.734375 -18.046875 C 9.484375 -18.847656 7.519531 -20.171875 5.84375 -22.015625 C 4.164062 -23.859375 3.328125 -26.359375 3.328125 -29.515625 C 3.328125 -34.148438 5.117188 -37.5625 8.703125 -39.75 C 12.285156 -41.945312 16.828125 -43.046875 22.328125 -43.046875 Z M 22.328125 -43.046875 "/></g></g></g><g fill="#1c4670" fill-opacity="1"><g transform="translate(430.606547, 328.495551)"><g><path d="M 28.90625 -31.484375 L 28.90625 0 L 15.3125 0 L 15.3125 -31.484375 L 1.421875 -31.484375 L 1.421875 -42.3125 L 42.75 -42.3125 L 42.75 -31.484375 Z M 28.90625 -31.484375 "/></g></g></g></svg>