<svg xmlns="http://www.w3.org/2000/svg" xmlns:xlink="http://www.w3.org/1999/xlink" width="1080" zoomAndPan="magnify" viewBox="0 0 810 809.999993" height="1080" preserveAspectRatio="xMidYMid meet" version="1.0"><defs><clipPath id="ae39f6dc77"><path d="M 243 255.386719 L 567 255.386719 L 567 579.386719 L 243 579.386719 Z M 243 255.386719 " clip-rule="nonzero"/></clipPath><clipPath id="9427a56255"><path d="M 360.820312 477.222656 L 402.070312 477.222656 L 402.070312 489.222656 L 360.820312 489.222656 Z M 360.820312 477.222656 " clip-rule="nonzero"/></clipPath><clipPath id="8b25f0cbf1"><path d="M 327.722656 320.613281 L 448.472656 320.613281 L 448.472656 448.863281 L 327.722656 448.863281 Z M 327.722656 320.613281 " clip-rule="nonzero"/></clipPath><clipPath id="a7eb76b9ea"><path d="M 414.710938 255.386719 L 566.960938 255.386719 L 566.960938 382.136719 L 414.710938 382.136719 Z M 414.710938 255.386719 " clip-rule="nonzero"/></clipPath><clipPath id="b5d55c8018"><path d="M 513.742188 291.675781 L 533.992188 291.675781 L 533.992188 311.925781 L 513.742188 311.925781 Z M 513.742188 291.675781 " clip-rule="nonzero"/></clipPath><clipPath id="4ad5102813"><path d="M 484.464844 291.675781 L 504.714844 291.675781 L 504.714844 311.925781 L 484.464844 311.925781 Z M 484.464844 291.675781 " clip-rule="nonzero"/></clipPath><clipPath id="e39f10cf21"><path d="M 455.007812 291.675781 L 475.257812 291.675781 L 475.257812 311.925781 L 455.007812 311.925781 Z M 455.007812 291.675781 " clip-rule="nonzero"/></clipPath></defs><g clip-path="url(#ae39f6dc77)"><path fill="#1c4670" d="M 398.804688 484.132812 C 398.804688 486.667969 396.746094 488.722656 394.210938 488.722656 L 372.757812 488.722656 C 370.222656 488.722656 368.167969 486.667969 368.167969 484.132812 C 368.167969 481.597656 370.222656 479.542969 372.757812 479.542969 L 394.210938 479.542969 C 396.746094 479.542969 398.804688 481.597656 398.804688 484.132812 Z M 358.554688 349.632812 C 358.554688 335.886719 369.738281 324.703125 383.488281 324.703125 C 397.234375 324.703125 408.417969 335.886719 408.417969 349.632812 C 408.417969 363.378906 397.234375 374.5625 383.488281 374.5625 C 369.738281 374.5625 358.554688 363.378906 358.554688 349.632812 Z M 367.738281 349.632812 C 367.738281 358.316406 374.800781 365.382812 383.488281 365.382812 C 392.171875 365.382812 399.238281 358.316406 399.238281 349.632812 C 399.238281 340.949219 392.171875 333.886719 383.488281 333.886719 C 374.800781 333.886719 367.738281 340.949219 367.738281 349.632812 Z M 432.085938 425.703125 C 432.085938 431.089844 429.179688 438.582031 415.328125 443.683594 C 406.851562 446.804688 395.542969 448.523438 383.484375 448.523438 C 371.425781 448.523438 360.117188 446.804688 351.640625 443.683594 C 337.789062 438.582031 334.882812 431.089844 334.882812 425.703125 C 334.882812 398.90625 356.6875 377.101562 383.484375 377.101562 C 410.285156 377.105469 432.085938 398.90625 432.085938 425.703125 Z M 422.902344 425.703125 C 422.902344 403.96875 405.222656 386.285156 383.488281 386.285156 C 361.75 386.285156 344.066406 403.96875 344.066406 425.703125 C 344.066406 433.222656 361.75 439.339844 383.484375 439.339844 C 405.222656 439.339844 422.902344 433.222656 422.902344 425.703125 Z M 567 273.328125 L 567 329.46875 C 567 339.363281 560.171875 347.410156 551.78125 347.410156 L 523.972656 347.410156 L 523.972656 484.023438 C 523.972656 497.316406 513.160156 508.128906 499.867188 508.128906 L 422.707031 508.128906 C 423.085938 522.601562 426.832031 537.402344 430.976562 546.449219 L 447.015625 546.449219 C 456.09375 546.449219 463.484375 553.839844 463.484375 562.917969 C 463.484375 572 456.09375 579.386719 447.015625 579.386719 L 319.960938 579.386719 C 310.878906 579.386719 303.492188 572 303.492188 562.917969 C 303.492188 553.839844 310.878906 546.449219 319.960938 546.449219 L 335.953125 546.449219 C 339.910156 537.554688 343.425781 522.804688 343.671875 508.128906 L 267.101562 508.128906 C 253.8125 508.128906 243 497.316406 243 484.027344 L 243 328.011719 C 243 314.722656 253.8125 303.90625 267.101562 303.90625 L 420.972656 303.90625 L 420.972656 273.328125 C 420.972656 263.4375 427.800781 255.386719 436.191406 255.386719 L 551.78125 255.386719 C 560.171875 255.386719 567 263.4375 567 273.328125 Z M 447.015625 555.632812 L 319.960938 555.632812 C 315.941406 555.632812 312.671875 558.902344 312.671875 562.917969 C 312.671875 566.9375 315.941406 570.203125 319.960938 570.203125 L 447.015625 570.203125 C 451.03125 570.203125 454.300781 566.9375 454.300781 562.917969 C 454.300781 558.902344 451.03125 555.632812 447.015625 555.632812 Z M 413.523438 508.128906 L 352.851562 508.128906 C 352.636719 521.234375 349.996094 535.59375 345.882812 546.449219 L 420.996094 546.449219 C 416.675781 535.449219 413.847656 521.082031 413.523438 508.128906 Z M 514.789062 484.027344 L 514.789062 469.316406 L 252.183594 469.316406 L 252.183594 484.027344 C 252.183594 492.253906 258.875 498.945312 267.101562 498.945312 L 499.867188 498.945312 C 508.09375 498.945312 514.789062 492.253906 514.789062 484.027344 Z M 514.789062 347.414062 L 472.957031 347.414062 L 449.511719 373.644531 C 448.625 374.636719 447.371094 375.175781 446.089844 375.175781 C 445.539062 375.175781 444.984375 375.078125 444.453125 374.875 C 442.675781 374.195312 441.5 372.488281 441.5 370.582031 L 441.503906 347.414062 L 436.191406 347.414062 C 427.800781 347.414062 420.972656 339.363281 420.972656 329.46875 L 420.972656 313.089844 L 267.101562 313.089844 C 258.875 313.089844 252.183594 319.785156 252.183594 328.011719 L 252.183594 460.136719 L 514.789062 460.136719 Z M 557.816406 273.328125 C 557.816406 268.664062 554.996094 264.570312 551.78125 264.570312 L 436.191406 264.570312 C 432.976562 264.570312 430.15625 268.664062 430.15625 273.328125 L 430.15625 329.46875 C 430.15625 334.136719 432.976562 338.230469 436.191406 338.230469 L 446.09375 338.230469 C 447.3125 338.230469 448.480469 338.714844 449.34375 339.574219 C 450.203125 340.4375 450.6875 341.605469 450.6875 342.820312 L 450.683594 358.554688 L 467.480469 339.761719 C 468.351562 338.785156 469.597656 338.230469 470.902344 338.230469 L 551.78125 338.230469 C 554.996094 338.230469 557.816406 334.136719 557.816406 329.46875 Z M 462.136719 294.839844 C 458.515625 294.839844 455.578125 297.777344 455.578125 301.398438 C 455.578125 305.023438 458.515625 307.957031 462.136719 307.957031 C 465.757812 307.957031 468.695312 305.023438 468.695312 301.398438 C 468.695312 297.777344 465.761719 294.839844 462.136719 294.839844 Z M 525.9375 294.839844 C 522.316406 294.839844 519.378906 297.777344 519.378906 301.398438 C 519.378906 305.023438 522.316406 307.957031 525.9375 307.957031 C 529.5625 307.957031 532.496094 305.023438 532.496094 301.398438 C 532.496094 297.777344 529.5625 294.839844 525.9375 294.839844 Z M 494.039062 294.839844 C 490.414062 294.839844 487.480469 297.777344 487.480469 301.398438 C 487.480469 305.023438 490.414062 307.957031 494.039062 307.957031 C 497.660156 307.957031 500.597656 305.023438 500.597656 301.398438 C 500.597656 297.777344 497.660156 294.839844 494.039062 294.839844 Z M 494.039062 294.839844 " fill-opacity="1" fill-rule="nonzero"/></g><g clip-path="url(#9427a56255)"><path fill="#ffa229" d="M 366.988281 477.222656 L 395.90625 477.222656 C 397.535156 477.222656 399.101562 477.851562 400.253906 478.980469 C 401.410156 480.105469 402.058594 481.628906 402.058594 483.222656 C 402.058594 484.8125 401.410156 486.339844 400.253906 487.464844 C 399.101562 488.589844 397.535156 489.222656 395.90625 489.222656 L 366.988281 489.222656 C 365.355469 489.222656 363.792969 488.589844 362.636719 487.464844 C 361.484375 486.339844 360.835938 484.8125 360.835938 483.222656 C 360.835938 481.628906 361.484375 480.105469 362.636719 478.980469 C 363.792969 477.851562 365.355469 477.222656 366.988281 477.222656 " fill-opacity="1" fill-rule="nonzero"/></g><g clip-path="url(#8b25f0cbf1)"><path fill="#ffa229" d="M 398.804688 484.132812 C 398.804688 486.667969 396.746094 488.722656 394.210938 488.722656 L 372.757812 488.722656 C 370.222656 488.722656 368.167969 486.667969 368.167969 484.132812 C 368.167969 481.597656 370.222656 479.542969 372.757812 479.542969 L 394.210938 479.542969 C 396.746094 479.542969 398.804688 481.597656 398.804688 484.132812 Z M 358.554688 349.632812 C 358.554688 335.886719 369.738281 324.703125 383.488281 324.703125 C 397.234375 324.703125 408.417969 335.886719 408.417969 349.632812 C 408.417969 363.378906 397.234375 374.5625 383.488281 374.5625 C 369.738281 374.5625 358.554688 363.378906 358.554688 349.632812 Z M 367.738281 349.632812 C 367.738281 358.316406 374.800781 365.382812 383.488281 365.382812 C 392.171875 365.382812 399.238281 358.316406 399.238281 349.632812 C 399.238281 340.949219 392.171875 333.886719 383.488281 333.886719 C 374.800781 333.886719 367.738281 340.949219 367.738281 349.632812 Z M 432.085938 425.703125 C 432.085938 431.089844 429.179688 438.582031 415.328125 443.683594 C 406.851562 446.804688 395.542969 448.523438 383.484375 448.523438 C 371.425781 448.523438 360.117188 446.804688 351.640625 443.683594 C 337.789062 438.582031 334.882812 431.089844 334.882812 425.703125 C 334.882812 398.90625 356.6875 377.101562 383.484375 377.101562 C 410.285156 377.105469 432.085938 398.90625 432.085938 425.703125 Z M 422.902344 425.703125 C 422.902344 403.96875 405.222656 386.285156 383.488281 386.285156 C 361.75 386.285156 344.066406 403.96875 344.066406 425.703125 C 344.066406 433.222656 361.75 439.339844 383.484375 439.339844 C 405.222656 439.339844 422.902344 433.222656 422.902344 425.703125 Z M 567 273.328125 L 567 329.46875 C 567 339.363281 560.171875 347.414062 551.78125 347.414062 L 523.972656 347.414062 L 523.972656 484.023438 C 523.972656 497.316406 513.160156 508.128906 499.867188 508.128906 L 422.707031 508.128906 C 423.085938 522.601562 426.832031 537.402344 430.976562 546.449219 L 447.015625 546.449219 C 456.09375 546.449219 463.484375 553.839844 463.484375 562.917969 C 463.484375 572 456.09375 579.386719 447.015625 579.386719 L 319.960938 579.386719 C 310.878906 579.386719 303.492188 572 303.492188 562.917969 C 303.492188 553.839844 310.878906 546.449219 319.960938 546.449219 L 335.953125 546.449219 C 339.910156 537.554688 343.425781 522.804688 343.671875 508.128906 L 267.101562 508.128906 C 253.8125 508.128906 243 497.316406 243 484.027344 L 243 328.011719 C 243 314.722656 253.8125 303.910156 267.101562 303.910156 L 420.972656 303.910156 L 420.972656 273.328125 C 420.972656 263.4375 427.800781 255.386719 436.191406 255.386719 L 551.78125 255.386719 C 560.171875 255.386719 567 263.4375 567 273.328125 Z M 447.015625 555.632812 L 319.960938 555.632812 C 315.941406 555.632812 312.671875 558.902344 312.671875 562.917969 C 312.671875 566.9375 315.941406 570.203125 319.960938 570.203125 L 447.015625 570.203125 C 451.03125 570.203125 454.300781 566.9375 454.300781 562.917969 C 454.300781 558.902344 451.03125 555.632812 447.015625 555.632812 Z M 413.523438 508.128906 L 352.851562 508.128906 C 352.636719 521.234375 349.996094 535.59375 345.882812 546.449219 L 420.996094 546.449219 C 416.675781 535.449219 413.847656 521.082031 413.523438 508.128906 Z M 514.789062 484.027344 L 514.789062 469.316406 L 252.183594 469.316406 L 252.183594 484.027344 C 252.183594 492.253906 258.875 498.945312 267.101562 498.945312 L 499.867188 498.945312 C 508.09375 498.945312 514.789062 492.253906 514.789062 484.027344 Z M 514.789062 347.414062 L 472.957031 347.414062 L 449.511719 373.644531 C 448.625 374.636719 447.371094 375.175781 446.089844 375.175781 C 445.539062 375.175781 444.984375 375.078125 444.453125 374.875 C 442.675781 374.195312 441.5 372.488281 441.5 370.585938 L 441.503906 347.414062 L 436.191406 347.414062 C 427.800781 347.414062 420.972656 339.363281 420.972656 329.46875 L 420.972656 313.089844 L 267.101562 313.089844 C 258.875 313.089844 252.183594 319.785156 252.183594 328.011719 L 252.183594 460.136719 L 514.789062 460.136719 Z M 557.816406 273.328125 C 557.816406 268.664062 554.996094 264.570312 551.78125 264.570312 L 436.191406 264.570312 C 432.976562 264.570312 430.15625 268.664062 430.15625 273.328125 L 430.15625 329.46875 C 430.15625 334.136719 432.976562 338.230469 436.191406 338.230469 L 446.09375 338.230469 C 447.3125 338.230469 448.480469 338.714844 449.34375 339.574219 C 450.203125 340.4375 450.6875 341.605469 450.6875 342.824219 L 450.683594 358.554688 L 467.480469 339.761719 C 468.351562 338.785156 469.597656 338.230469 470.902344 338.230469 L 551.78125 338.230469 C 554.996094 338.230469 557.816406 334.136719 557.816406 329.46875 Z M 462.136719 294.839844 C 458.515625 294.839844 455.578125 297.777344 455.578125 301.398438 C 455.578125 305.023438 458.515625 307.957031 462.136719 307.957031 C 465.757812 307.957031 468.695312 305.023438 468.695312 301.398438 C 468.695312 297.777344 465.761719 294.839844 462.136719 294.839844 Z M 525.9375 294.839844 C 522.316406 294.839844 519.378906 297.777344 519.378906 301.398438 C 519.378906 305.023438 522.316406 307.957031 525.9375 307.957031 C 529.5625 307.957031 532.496094 305.023438 532.496094 301.398438 C 532.496094 297.777344 529.5625 294.839844 525.9375 294.839844 Z M 494.039062 294.839844 C 490.414062 294.839844 487.480469 297.777344 487.480469 301.398438 C 487.480469 305.023438 490.414062 307.957031 494.039062 307.957031 C 497.660156 307.957031 500.597656 305.023438 500.597656 301.398438 C 500.597656 297.777344 497.660156 294.839844 494.039062 294.839844 Z M 494.039062 294.839844 " fill-opacity="1" fill-rule="nonzero"/></g><g clip-path="url(#a7eb76b9ea)"><path fill="#1c4670" d="M 398.804688 483.976562 C 398.804688 486.511719 396.746094 488.566406 394.210938 488.566406 L 372.757812 488.566406 C 370.222656 488.566406 368.167969 486.511719 368.167969 483.976562 C 368.167969 481.441406 370.222656 479.386719 372.757812 479.386719 L 394.210938 479.386719 C 396.746094 479.386719 398.804688 481.441406 398.804688 483.976562 Z M 358.554688 349.476562 C 358.554688 335.730469 369.738281 324.546875 383.488281 324.546875 C 397.234375 324.546875 408.417969 335.730469 408.417969 349.476562 C 408.417969 363.222656 397.234375 374.410156 383.488281 374.410156 C 369.738281 374.410156 358.554688 363.222656 358.554688 349.476562 Z M 367.738281 349.476562 C 367.738281 358.160156 374.800781 365.226562 383.488281 365.226562 C 392.171875 365.226562 399.238281 358.160156 399.238281 349.476562 C 399.238281 340.792969 392.171875 333.730469 383.488281 333.730469 C 374.800781 333.730469 367.738281 340.792969 367.738281 349.476562 Z M 432.085938 425.546875 C 432.085938 430.933594 429.179688 438.429688 415.328125 443.527344 C 406.851562 446.648438 395.542969 448.367188 383.484375 448.367188 C 371.425781 448.367188 360.117188 446.648438 351.640625 443.527344 C 337.789062 438.429688 334.882812 430.933594 334.882812 425.546875 C 334.882812 398.75 356.6875 376.949219 383.484375 376.949219 C 410.285156 376.949219 432.085938 398.75 432.085938 425.546875 Z M 422.902344 425.546875 C 422.902344 403.8125 405.222656 386.128906 383.488281 386.128906 C 361.75 386.128906 344.066406 403.8125 344.066406 425.546875 C 344.066406 433.066406 361.75 439.183594 383.484375 439.183594 C 405.222656 439.183594 422.902344 433.066406 422.902344 425.546875 Z M 567 273.175781 L 567 329.3125 C 567 339.207031 560.171875 347.257812 551.78125 347.257812 L 523.972656 347.257812 L 523.972656 483.871094 C 523.972656 497.160156 513.160156 507.972656 499.867188 507.972656 L 422.707031 507.972656 C 423.085938 522.445312 426.832031 537.246094 430.976562 546.296875 L 447.015625 546.296875 C 456.09375 546.296875 463.484375 553.683594 463.484375 562.761719 C 463.484375 571.84375 456.09375 579.230469 447.015625 579.230469 L 319.960938 579.230469 C 310.878906 579.230469 303.492188 571.84375 303.492188 562.761719 C 303.492188 553.683594 310.878906 546.296875 319.960938 546.296875 L 335.953125 546.296875 C 339.910156 537.398438 343.425781 522.652344 343.671875 507.972656 L 267.101562 507.972656 C 253.8125 507.972656 243 497.160156 243 483.871094 L 243 327.855469 C 243 314.566406 253.8125 303.753906 267.101562 303.753906 L 420.972656 303.753906 L 420.972656 273.175781 C 420.972656 263.28125 427.800781 255.230469 436.191406 255.230469 L 551.78125 255.230469 C 560.171875 255.230469 567 263.28125 567 273.175781 Z M 447.015625 555.476562 L 319.960938 555.476562 C 315.941406 555.476562 312.671875 558.746094 312.671875 562.761719 C 312.671875 566.78125 315.941406 570.050781 319.960938 570.050781 L 447.015625 570.050781 C 451.03125 570.050781 454.300781 566.78125 454.300781 562.761719 C 454.300781 558.746094 451.03125 555.476562 447.015625 555.476562 Z M 413.523438 507.972656 L 352.851562 507.972656 C 352.636719 521.078125 349.996094 535.4375 345.882812 546.296875 L 420.996094 546.296875 C 416.675781 535.292969 413.847656 520.925781 413.523438 507.972656 Z M 514.789062 483.871094 L 514.789062 469.160156 L 252.183594 469.160156 L 252.183594 483.871094 C 252.183594 492.097656 258.875 498.792969 267.101562 498.792969 L 499.867188 498.792969 C 508.09375 498.789062 514.789062 492.097656 514.789062 483.871094 Z M 514.789062 347.257812 L 472.957031 347.257812 L 449.511719 373.488281 C 448.625 374.484375 447.371094 375.019531 446.089844 375.019531 C 445.539062 375.019531 444.984375 374.921875 444.453125 374.71875 C 442.675781 374.039062 441.5 372.332031 441.5 370.429688 L 441.503906 347.257812 L 436.191406 347.257812 C 427.800781 347.257812 420.972656 339.207031 420.972656 329.316406 L 420.972656 312.933594 L 267.101562 312.933594 C 258.875 312.933594 252.183594 319.628906 252.183594 327.855469 L 252.183594 459.980469 L 514.789062 459.980469 Z M 557.816406 273.175781 C 557.816406 268.507812 554.996094 264.414062 551.78125 264.414062 L 436.191406 264.414062 C 432.976562 264.414062 430.15625 268.507812 430.15625 273.175781 L 430.15625 329.3125 C 430.15625 333.980469 432.976562 338.074219 436.191406 338.074219 L 446.09375 338.074219 C 447.3125 338.074219 448.480469 338.558594 449.34375 339.417969 C 450.203125 340.28125 450.6875 341.449219 450.6875 342.667969 L 450.683594 358.398438 L 467.480469 339.605469 C 468.351562 338.632812 469.597656 338.074219 470.902344 338.074219 L 551.78125 338.074219 C 554.996094 338.074219 557.816406 333.980469 557.816406 329.3125 Z M 462.136719 294.683594 C 458.515625 294.683594 455.578125 297.621094 455.578125 301.242188 C 455.578125 304.867188 458.515625 307.800781 462.136719 307.800781 C 465.757812 307.800781 468.695312 304.867188 468.695312 301.242188 C 468.695312 297.621094 465.761719 294.683594 462.136719 294.683594 Z M 525.9375 294.683594 C 522.316406 294.683594 519.378906 297.621094 519.378906 301.242188 C 519.378906 304.867188 522.316406 307.800781 525.9375 307.800781 C 529.5625 307.800781 532.496094 304.867188 532.496094 301.242188 C 532.496094 297.621094 529.5625 294.683594 525.9375 294.683594 Z M 494.039062 294.683594 C 490.414062 294.683594 487.480469 297.621094 487.480469 301.242188 C 487.480469 304.867188 490.414062 307.800781 494.039062 307.800781 C 497.660156 307.800781 500.597656 304.867188 500.597656 301.242188 C 500.597656 297.621094 497.660156 294.683594 494.039062 294.683594 Z M 494.039062 294.683594 " fill-opacity="1" fill-rule="nonzero"/></g><g clip-path="url(#b5d55c8018)"><path fill="#ffa229" d="M 523.867188 291.675781 C 518.277344 291.675781 513.742188 296.210938 513.742188 301.800781 C 513.742188 307.394531 518.277344 311.925781 523.867188 311.925781 C 529.460938 311.925781 533.992188 307.394531 533.992188 301.800781 C 533.992188 296.210938 529.460938 291.675781 523.867188 291.675781 " fill-opacity="1" fill-rule="nonzero"/></g><g clip-path="url(#4ad5102813)"><path fill="#ffa229" d="M 494.589844 291.675781 C 489 291.675781 484.464844 296.210938 484.464844 301.800781 C 484.464844 307.394531 489 311.925781 494.589844 311.925781 C 500.183594 311.925781 504.714844 307.394531 504.714844 301.800781 C 504.714844 296.210938 500.183594 291.675781 494.589844 291.675781 " fill-opacity="1" fill-rule="nonzero"/></g><g clip-path="url(#e39f10cf21)"><path fill="#ffa229" d="M 465.132812 291.675781 C 459.539062 291.675781 455.007812 296.210938 455.007812 301.800781 C 455.007812 307.394531 459.539062 311.925781 465.132812 311.925781 C 470.722656 311.925781 475.257812 307.394531 475.257812 301.800781 C 475.257812 296.210938 470.722656 291.675781 465.132812 291.675781 " fill-opacity="1" fill-rule="nonzero"/></g></svg>